<?xml version="1.0" encoding="utf-8"?>
<!-- Generator: Adobe Illustrator 16.0.0, SVG Export Plug-In . SVG Version: 6.00 Build 0)  -->
<!DOCTYPE svg PUBLIC "-//W3C//DTD SVG 1.1//EN" "http://www.w3.org/Graphics/SVG/1.1/DTD/svg11.dtd">
<svg version="1.1" id="Layer_1" xmlns="http://www.w3.org/2000/svg" xmlns:xlink="http://www.w3.org/1999/xlink" x="0px" y="0px"
	 width="400px" height="200px" viewBox="0 50 400 200" enable-background="new 0 50 400 200" xml:space="preserve">
<g>
	<path fill="#333333" d="M52.57,120.253C23.537,120.253,0,143.79,0,172.824c0,29.035,23.537,52.57,52.57,52.57
		c29.033,0,52.57-23.535,52.57-52.57C105.141,143.79,81.604,120.253,52.57,120.253z M52.57,220.137
		c-26.088,0-47.313-21.225-47.313-47.312c0-26.087,21.225-47.315,47.313-47.315c26.088,0,47.313,21.227,47.313,47.313
		C99.883,198.91,78.658,220.137,52.57,220.137z"/>
	<circle fill="#333333" cx="23.656" cy="159.681" r="2.628"/>
	<path fill="#333333" d="M81.484,170.195c-1.452,0-2.629,1.178-2.629,2.629c0,14.492-11.791,26.285-26.285,26.285
		c-14.494,0-26.285-11.793-26.285-26.285c0-1.451-1.177-2.629-2.629-2.629c-1.451,0-2.628,1.178-2.628,2.629
		c0,17.395,14.148,31.543,31.542,31.543c17.392,0,31.542-14.148,31.542-31.543C84.112,171.373,82.936,170.195,81.484,170.195z"/>
	<path fill="#333333" d="M85.52,150.389c-1.027-1.029-2.69-1.027-3.717,0l-7.43,7.432c-0.479,0.477-0.774,1.134-0.774,1.861
		c0,1.451,1.177,2.627,2.628,2.627h10.515c1.452,0,2.629-1.176,2.629-2.627c0-1.453-1.177-2.629-2.629-2.629h-4.169l2.947-2.947
		C86.546,153.079,86.546,151.415,85.52,150.389z"/>
</g>
<g id="Layer_1_1_">
	<g>
		<path fill="#333333" d="M347.357,120.253c-29.071,0-52.642,23.568-52.642,52.642c0,29.072,23.568,52.641,52.642,52.641
			c29.072,0,52.643-23.568,52.643-52.641C400,143.821,376.432,120.253,347.357,120.253z M347.357,220.27
			c-26.123,0-47.375-21.252-47.375-47.375c0-26.124,21.252-47.377,47.375-47.377s47.377,21.254,47.377,47.377
			C394.734,199.018,373.48,220.27,347.357,220.27z"/>
		<circle fill="#333333" cx="317.404" cy="159.733" r="2.632"/>
		<circle fill="#333333" cx="375.311" cy="159.733" r="2.632"/>
		<path fill="#333333" d="M375.311,170.262c-1.453,0-2.631,1.18-2.631,2.633c0,14.514-11.81,26.32-26.32,26.32
			c-14.514,0-26.319-11.811-26.319-26.32c0-1.455-1.179-2.633-2.631-2.633c-1.455,0-2.634,1.18-2.634,2.633
			c0,17.416,14.17,31.584,31.584,31.584c17.418,0,31.586-14.168,31.586-31.584C377.943,171.441,376.766,170.262,375.311,170.262z"/>
	</g>
</g>
<g>
	<path fill="#69AEBD" d="M196,133.394v22.534c0,2.41-0.43,6.467-3.281,6.467h-48.181c-2.852,0-4.538-4.057-4.538-6.467V91.862
		c0-2.413,1.686-2.468,4.538-2.468H170"/>
	<path fill="#D0583A" d="M221.312,87.237c1.613-0.226,3.264-0.343,4.938-0.343c20.021,0,36.249,16.686,36.249,37.271
		c0,20.583-16.229,37.269-36.249,37.269c-16.564,0-30.534-11.422-34.863-27.023"/>
	<g enable-background="new    ">
		<path d="M149.11,112.927c0.022,0.046,0.072,0.155,0.147,0.33c0.076,0.174,0.167,0.375,0.273,0.603
			c0.106,0.227,0.216,0.47,0.33,0.728c0.114,0.257,0.22,0.492,0.318,0.704c0.098,0.212,0.212,0.463,0.341,0.75
			c0.068,0.145,0.076,0.288,0.023,0.433c-0.053,0.144-0.152,0.25-0.296,0.317c-0.068,0.031-0.147,0.046-0.238,0.046
			c-0.106,0-0.207-0.028-0.301-0.085c-0.095-0.057-0.165-0.139-0.21-0.245v-0.011c-0.022-0.046-0.07-0.151-0.142-0.318
			s-0.159-0.363-0.261-0.591c-0.103-0.228-0.21-0.466-0.324-0.716c-0.113-0.251-0.22-0.485-0.318-0.705
			c-0.099-0.22-0.184-0.405-0.256-0.557c-0.072-0.152-0.116-0.239-0.131-0.262c-0.045-0.068-0.108-0.115-0.188-0.143
			c-0.08-0.026-0.161-0.021-0.244,0.018c-0.068,0.03-0.12,0.076-0.154,0.137s-0.051,0.121-0.051,0.182v2.739
			c0,0.151-0.055,0.282-0.165,0.392c-0.11,0.11-0.241,0.165-0.392,0.165c-0.144,0-0.273-0.049-0.386-0.147
			c-0.122-0.106-0.182-0.243-0.182-0.409v-7.206c0-0.167,0.061-0.303,0.182-0.409c0.113-0.099,0.242-0.148,0.386-0.148
			c0.151,0,0.282,0.056,0.392,0.165c0.11,0.11,0.165,0.241,0.165,0.393v2.739c0,0.061,0.017,0.121,0.051,0.182
			s0.085,0.106,0.154,0.137c0.083,0.038,0.165,0.043,0.244,0.017c0.079-0.026,0.142-0.074,0.188-0.142
			c0.015-0.023,0.059-0.11,0.131-0.262c0.072-0.151,0.157-0.337,0.256-0.557c0.098-0.22,0.205-0.455,0.318-0.705
			c0.114-0.25,0.222-0.488,0.324-0.716c0.102-0.228,0.189-0.425,0.261-0.591c0.072-0.167,0.12-0.273,0.142-0.318v-0.012
			c0.045-0.106,0.115-0.188,0.21-0.244c0.095-0.057,0.195-0.086,0.301-0.086c0.091,0,0.17,0.016,0.238,0.046
			c0.144,0.068,0.243,0.175,0.296,0.318c0.053,0.144,0.045,0.288-0.023,0.432c-0.129,0.288-0.243,0.538-0.341,0.75
			c-0.099,0.213-0.205,0.447-0.318,0.705c-0.113,0.258-0.224,0.5-0.33,0.728s-0.197,0.428-0.273,0.603
			c-0.076,0.174-0.125,0.284-0.147,0.329c-0.016,0.046-0.036,0.089-0.062,0.131c-0.027,0.042-0.055,0.082-0.085,0.119
			c0.03,0.038,0.059,0.078,0.085,0.119C149.074,112.838,149.095,112.882,149.11,112.927z"/>
		<path d="M152.827,109.677c-0.038,0.038-0.057,0.087-0.057,0.147v2.08c0,0.061,0.019,0.107,0.057,0.142
			c0.038,0.034,0.087,0.052,0.147,0.052h1.489c0.151,0,0.282,0.055,0.392,0.164c0.11,0.11,0.165,0.245,0.165,0.404
			c0,0.151-0.055,0.282-0.165,0.392s-0.241,0.165-0.392,0.165h-1.489c-0.061,0-0.11,0.019-0.147,0.057
			c-0.038,0.038-0.057,0.087-0.057,0.147v2.08c0,0.054,0.019,0.099,0.057,0.137s0.087,0.057,0.147,0.057h2.058
			c0.151,0,0.282,0.056,0.392,0.165c0.109,0.109,0.165,0.24,0.165,0.392c0,0.159-0.055,0.294-0.165,0.404
			c-0.11,0.109-0.241,0.164-0.392,0.164h-2.819c-0.152,0-0.282-0.055-0.392-0.164c-0.11-0.11-0.165-0.245-0.165-0.404v-7.194
			c0-0.151,0.055-0.282,0.165-0.392c0.11-0.11,0.24-0.165,0.392-0.165h2.819c0.151,0,0.282,0.055,0.392,0.165
			c0.109,0.109,0.165,0.24,0.165,0.392c0,0.152-0.055,0.282-0.165,0.393c-0.11,0.109-0.241,0.164-0.392,0.164h-2.058
			C152.914,109.62,152.864,109.639,152.827,109.677z"/>
		<path d="M157.737,109.677c-0.038,0.038-0.057,0.087-0.057,0.147v2.08c0,0.061,0.019,0.107,0.057,0.142
			c0.038,0.034,0.087,0.052,0.147,0.052h1.489c0.151,0,0.282,0.055,0.392,0.164c0.11,0.11,0.165,0.245,0.165,0.404
			c0,0.151-0.055,0.282-0.165,0.392c-0.11,0.11-0.241,0.165-0.392,0.165h-1.489c-0.061,0-0.11,0.019-0.147,0.057
			c-0.038,0.038-0.057,0.087-0.057,0.147v2.08c0,0.054,0.019,0.099,0.057,0.137c0.038,0.038,0.087,0.057,0.147,0.057h2.058
			c0.151,0,0.282,0.056,0.392,0.165c0.109,0.109,0.165,0.24,0.165,0.392c0,0.159-0.055,0.294-0.165,0.404
			c-0.11,0.109-0.241,0.164-0.392,0.164h-2.819c-0.152,0-0.282-0.055-0.392-0.164c-0.11-0.11-0.165-0.245-0.165-0.404v-7.194
			c0-0.151,0.055-0.282,0.165-0.392c0.11-0.11,0.24-0.165,0.392-0.165h2.819c0.151,0,0.282,0.055,0.392,0.165
			c0.109,0.109,0.165,0.24,0.165,0.392c0,0.152-0.055,0.282-0.165,0.393c-0.11,0.109-0.241,0.164-0.392,0.164h-2.058
			C157.824,109.62,157.774,109.639,157.737,109.677z"/>
		<path d="M162.59,116.269c0,0.159-0.055,0.294-0.165,0.403c-0.11,0.11-0.241,0.165-0.392,0.165c-0.152,0-0.282-0.055-0.392-0.165
			c-0.11-0.109-0.165-0.244-0.165-0.403v-7.194c0-0.159,0.053-0.292,0.159-0.398c0.106-0.105,0.239-0.159,0.398-0.159h1.273
			c0.538,0,1.03,0.148,1.478,0.443c0.424,0.288,0.743,0.675,0.955,1.16c0.137,0.333,0.205,0.674,0.205,1.022
			c0,0.53-0.151,1.023-0.455,1.478c-0.295,0.432-0.682,0.746-1.159,0.943c-0.311,0.145-0.652,0.216-1.023,0.216h-0.512
			c-0.053,0-0.098,0.021-0.136,0.057c-0.045,0.038-0.068,0.084-0.068,0.137L162.59,116.269L162.59,116.269z M162.59,112.461
			c0,0.053,0.019,0.099,0.057,0.137s0.087,0.057,0.147,0.057h0.512c0.303,0,0.587-0.087,0.853-0.262
			c0.25-0.166,0.432-0.386,0.545-0.659c0.076-0.174,0.114-0.371,0.114-0.591c0-0.303-0.087-0.583-0.262-0.841
			c-0.159-0.242-0.379-0.425-0.659-0.546c-0.189-0.083-0.386-0.125-0.591-0.125h-0.512c-0.061,0-0.11,0.02-0.147,0.057
			c-0.038,0.038-0.057,0.088-0.057,0.148V112.461z"/>
		<path d="M170.603,110.177c-0.053,0.099-0.08,0.212-0.08,0.341v4.319c0,0.174,0.053,0.337,0.159,0.488
			c0.098,0.145,0.227,0.25,0.386,0.318c0.099,0.045,0.212,0.068,0.341,0.068c0.182,0,0.345-0.05,0.489-0.148
			c0.136-0.083,0.242-0.212,0.318-0.386c0.045-0.114,0.068-0.228,0.068-0.341c0-0.152,0.055-0.282,0.165-0.393
			c0.109-0.109,0.244-0.165,0.403-0.165c0.151,0,0.282,0.056,0.392,0.165c0.11,0.11,0.165,0.24,0.165,0.393
			c0,0.196-0.031,0.39-0.091,0.579s-0.144,0.368-0.25,0.534c-0.22,0.334-0.515,0.576-0.886,0.728
			c-0.25,0.106-0.508,0.159-0.773,0.159c-0.394,0-0.77-0.113-1.125-0.341c-0.326-0.22-0.564-0.516-0.716-0.887
			c-0.106-0.25-0.159-0.508-0.159-0.772v-4.319c0-0.417,0.114-0.792,0.341-1.125c0.22-0.326,0.512-0.564,0.875-0.717
			c0.234-0.105,0.496-0.159,0.784-0.159c0.409,0,0.78,0.114,1.114,0.342c0.333,0.22,0.576,0.511,0.728,0.875
			c0.106,0.258,0.159,0.519,0.159,0.784c0,0.151-0.055,0.282-0.165,0.392c-0.11,0.11-0.241,0.165-0.392,0.165
			c-0.159,0-0.294-0.055-0.403-0.165c-0.11-0.109-0.165-0.24-0.165-0.392c0-0.189-0.049-0.356-0.148-0.5
			c-0.098-0.145-0.227-0.25-0.386-0.318c-0.106-0.046-0.22-0.068-0.341-0.068c-0.167,0-0.33,0.05-0.489,0.147
			C170.762,109.885,170.655,110.018,170.603,110.177z"/>
		<path d="M178.513,109.847c0.121,0.288,0.182,0.572,0.182,0.853v5.581c0,0.151-0.055,0.282-0.165,0.392
			c-0.11,0.11-0.244,0.165-0.403,0.165c-0.152,0-0.283-0.055-0.392-0.165c-0.11-0.109-0.165-0.24-0.165-0.392v-2.296
			c0-0.061-0.019-0.11-0.057-0.148c-0.038-0.037-0.087-0.057-0.148-0.057h-1.728c-0.061,0-0.11,0.021-0.148,0.057
			c-0.038,0.038-0.057,0.088-0.057,0.148v2.296c0,0.151-0.055,0.282-0.165,0.392c-0.11,0.11-0.245,0.165-0.404,0.165
			c-0.151,0-0.282-0.055-0.392-0.165c-0.11-0.109-0.165-0.24-0.165-0.392V110.7c0-0.22,0.032-0.434,0.096-0.642
			c0.064-0.209,0.157-0.4,0.279-0.574c0.242-0.371,0.564-0.637,0.966-0.796c0.273-0.113,0.557-0.171,0.853-0.171
			c0.455,0,0.864,0.126,1.228,0.376C178.093,109.135,178.354,109.454,178.513,109.847z M177.365,112.655
			c0.061,0,0.11-0.017,0.148-0.051c0.038-0.034,0.057-0.082,0.057-0.143v-1.762c0-0.228-0.061-0.424-0.182-0.591
			c-0.114-0.174-0.269-0.303-0.466-0.387c-0.144-0.061-0.284-0.091-0.42-0.091c-0.205,0-0.405,0.061-0.603,0.182
			c-0.174,0.114-0.303,0.273-0.386,0.478c-0.03,0.061-0.051,0.127-0.062,0.199c-0.011,0.072-0.017,0.142-0.017,0.21v1.762
			c0,0.061,0.019,0.108,0.057,0.143c0.038,0.034,0.087,0.051,0.148,0.051H177.365z"/>
		<path d="M180.423,108.517c0.151,0,0.282,0.056,0.392,0.165c0.11,0.11,0.165,0.241,0.165,0.393v6.444
			c0,0.053,0.019,0.099,0.057,0.137c0.038,0.037,0.087,0.057,0.148,0.057h1.409c0.151,0,0.282,0.055,0.392,0.165
			c0.11,0.109,0.165,0.24,0.165,0.392c0,0.159-0.055,0.294-0.165,0.403c-0.11,0.11-0.241,0.165-0.392,0.165h-2.171
			c-0.152,0-0.284-0.055-0.398-0.165c-0.113-0.109-0.17-0.244-0.17-0.403v-7.194c0-0.151,0.057-0.282,0.17-0.393
			C180.139,108.573,180.271,108.517,180.423,108.517z"/>
		<path d="M190.674,116.281c0,0.151-0.055,0.282-0.165,0.392c-0.11,0.11-0.245,0.165-0.403,0.165c-0.152,0-0.283-0.055-0.393-0.165
			c-0.11-0.109-0.165-0.24-0.165-0.392l0.011-2.228v-3.535c0-0.182-0.053-0.349-0.159-0.5c-0.099-0.145-0.227-0.25-0.386-0.318
			c-0.106-0.046-0.22-0.068-0.341-0.068c-0.167,0-0.33,0.05-0.489,0.147c-0.159,0.106-0.266,0.239-0.318,0.398
			c-0.045,0.105-0.068,0.22-0.068,0.341v5.763c0,0.151-0.055,0.282-0.165,0.392c-0.11,0.11-0.245,0.165-0.404,0.165
			c-0.151,0-0.282-0.055-0.392-0.165c-0.11-0.109-0.165-0.24-0.165-0.392v-5.763c0-0.182-0.053-0.349-0.159-0.5
			c-0.099-0.145-0.228-0.25-0.387-0.318c-0.106-0.046-0.22-0.068-0.341-0.068c-0.167,0-0.33,0.05-0.489,0.147
			c-0.159,0.106-0.265,0.239-0.318,0.398c-0.045,0.105-0.068,0.22-0.068,0.341v5.763c0,0.151-0.055,0.282-0.165,0.392
			c-0.11,0.11-0.244,0.165-0.403,0.165c-0.152,0-0.282-0.055-0.392-0.165c-0.11-0.109-0.165-0.24-0.165-0.392v-5.763
			c0-0.417,0.114-0.792,0.341-1.125c0.22-0.326,0.515-0.564,0.886-0.717c0.121-0.061,0.246-0.102,0.375-0.125
			c0.129-0.022,0.262-0.034,0.398-0.034c0.409,0,0.784,0.114,1.125,0.342c0.121,0.075,0.227,0.163,0.318,0.261
			c0.182-0.189,0.405-0.337,0.671-0.443c0.121-0.061,0.246-0.102,0.375-0.125c0.129-0.022,0.261-0.034,0.398-0.034
			c0.409,0,0.784,0.114,1.125,0.342c0.326,0.22,0.564,0.511,0.716,0.875c0.106,0.258,0.159,0.519,0.159,0.784v3.535v2.227H190.674z"
			/>
	</g>
	<g enable-background="new    ">
		<path d="M165.016,123.487c0.121,0.288,0.182,0.572,0.182,0.853v5.581c0,0.151-0.055,0.282-0.165,0.392
			c-0.11,0.11-0.244,0.165-0.403,0.165c-0.152,0-0.283-0.055-0.392-0.165c-0.11-0.109-0.165-0.24-0.165-0.392v-2.297
			c0-0.061-0.019-0.11-0.057-0.148c-0.038-0.037-0.087-0.057-0.148-0.057h-1.728c-0.061,0-0.11,0.02-0.148,0.057
			c-0.038,0.038-0.057,0.088-0.057,0.148v2.296c0,0.151-0.055,0.282-0.165,0.392s-0.245,0.165-0.404,0.165
			c-0.151,0-0.282-0.055-0.392-0.165c-0.11-0.109-0.165-0.24-0.165-0.392v-5.581c0-0.22,0.032-0.434,0.096-0.642
			c0.064-0.209,0.157-0.4,0.279-0.574c0.242-0.371,0.564-0.637,0.966-0.796c0.273-0.113,0.557-0.171,0.853-0.171
			c0.455,0,0.864,0.126,1.228,0.376C164.596,122.775,164.857,123.093,165.016,123.487z M163.868,126.294
			c0.061,0,0.11-0.017,0.148-0.051c0.038-0.034,0.057-0.082,0.057-0.143v-1.762c0-0.228-0.061-0.424-0.182-0.591
			c-0.114-0.174-0.269-0.303-0.466-0.387c-0.144-0.061-0.284-0.091-0.42-0.091c-0.205,0-0.405,0.061-0.603,0.182
			c-0.174,0.114-0.303,0.273-0.386,0.478c-0.03,0.061-0.051,0.127-0.062,0.199c-0.011,0.072-0.017,0.142-0.017,0.21v1.762
			c0,0.061,0.019,0.108,0.057,0.143c0.038,0.034,0.087,0.051,0.148,0.051H163.868L163.868,126.294z"/>
		<path d="M170.529,123.476c0.121,0.288,0.182,0.572,0.182,0.852v5.593c0,0.151-0.055,0.282-0.165,0.392
			c-0.11,0.11-0.241,0.165-0.392,0.165c-0.152,0-0.284-0.055-0.398-0.165c-0.114-0.109-0.17-0.24-0.17-0.392v-5.593
			c0-0.227-0.061-0.424-0.182-0.591c-0.113-0.174-0.269-0.303-0.466-0.386c-0.144-0.061-0.284-0.092-0.42-0.092
			c-0.205,0-0.406,0.062-0.603,0.183c-0.174,0.113-0.303,0.272-0.386,0.477c-0.03,0.062-0.051,0.128-0.062,0.199
			c-0.012,0.072-0.017,0.143-0.017,0.21v5.593c0,0.151-0.055,0.282-0.165,0.392c-0.11,0.11-0.244,0.165-0.403,0.165
			c-0.152,0-0.282-0.055-0.392-0.165c-0.11-0.109-0.165-0.24-0.165-0.392v-5.593c0-0.219,0.032-0.434,0.097-0.642
			c0.065-0.208,0.157-0.399,0.278-0.574c0.243-0.371,0.564-0.637,0.966-0.796c0.273-0.113,0.557-0.17,0.853-0.17
			c0.455,0,0.864,0.125,1.228,0.375C170.108,122.763,170.37,123.082,170.529,123.476z"/>
		<path d="M172.46,130.465c-0.151,0-0.284-0.057-0.398-0.17c-0.113-0.114-0.17-0.246-0.17-0.398v-7.194
			c0-0.151,0.057-0.284,0.17-0.397c0.106-0.106,0.239-0.159,0.398-0.159h1.387c0.478,0,0.917,0.133,1.318,0.397
			c0.387,0.273,0.671,0.618,0.853,1.034c0.121,0.288,0.182,0.596,0.182,0.921v3.604c0,0.484-0.132,0.924-0.397,1.318
			c-0.273,0.401-0.622,0.686-1.046,0.853c-0.295,0.129-0.599,0.192-0.909,0.192h-1.388V130.465z M173.018,129.147
			c0,0.054,0.019,0.099,0.057,0.137c0.038,0.038,0.087,0.057,0.148,0.057h0.625c0.242,0,0.474-0.068,0.693-0.204
			c0.205-0.145,0.352-0.326,0.443-0.546c0.068-0.159,0.102-0.322,0.102-0.488v-3.604c0-0.234-0.072-0.466-0.216-0.693
			c-0.144-0.212-0.326-0.359-0.545-0.443c-0.152-0.068-0.311-0.103-0.478-0.103h-0.625c-0.061,0-0.11,0.02-0.148,0.058
			c-0.038,0.038-0.057,0.087-0.057,0.147L173.018,129.147L173.018,129.147z"/>
	</g>
	<g enable-background="new    ">
		<path d="M152.258,144.116c-0.152,0-0.283-0.057-0.392-0.171c-0.11-0.113-0.165-0.246-0.165-0.397v-6.456
			c0-0.061-0.019-0.109-0.057-0.147c-0.038-0.038-0.087-0.057-0.148-0.057h-1.057c-0.151,0-0.282-0.055-0.392-0.165
			c-0.11-0.109-0.165-0.24-0.165-0.392s0.055-0.282,0.165-0.393c0.11-0.109,0.241-0.165,0.392-0.165h3.626
			c0.151,0,0.282,0.056,0.392,0.165c0.11,0.11,0.165,0.24,0.165,0.393c0,0.151-0.055,0.282-0.165,0.392
			c-0.11,0.11-0.241,0.165-0.392,0.165h-1.046c-0.061,0-0.108,0.019-0.142,0.057c-0.034,0.038-0.051,0.087-0.051,0.147v6.456
			c0,0.151-0.057,0.284-0.17,0.397C152.542,144.059,152.41,144.116,152.258,144.116z"/>
		<path d="M159.566,139.467c-0.053,0.083-0.112,0.163-0.176,0.238c-0.064,0.076-0.131,0.145-0.199,0.205
			c-0.038,0.038-0.061,0.083-0.068,0.136c-0.008,0.054,0.003,0.099,0.034,0.137c0.212,0.28,0.341,0.587,0.386,0.921
			c0.023,0.136,0.047,0.297,0.074,0.482c0.026,0.187,0.053,0.379,0.08,0.58c0.027,0.201,0.053,0.395,0.08,0.58
			c0.027,0.185,0.051,0.339,0.074,0.46l0.034,0.262c0.023,0.151-0.013,0.289-0.108,0.414c-0.095,0.125-0.218,0.199-0.369,0.222
			c-0.016,0.008-0.042,0.012-0.08,0.012c-0.137,0-0.258-0.046-0.364-0.137s-0.17-0.208-0.193-0.352c0-0.008-0.013-0.104-0.04-0.29
			s-0.057-0.405-0.091-0.659c-0.034-0.254-0.07-0.512-0.108-0.773c-0.038-0.261-0.068-0.476-0.091-0.642
			c-0.038-0.22-0.136-0.398-0.295-0.534c-0.167-0.145-0.356-0.216-0.568-0.216h-0.75c-0.061,0-0.11,0.019-0.148,0.057
			c-0.038,0.038-0.057,0.087-0.057,0.147v2.83c0,0.159-0.055,0.294-0.165,0.403c-0.11,0.11-0.241,0.165-0.392,0.165
			c-0.159,0-0.293-0.055-0.403-0.165c-0.11-0.109-0.165-0.244-0.165-0.403v-7.194c0-0.151,0.057-0.284,0.17-0.398
			c0.106-0.105,0.239-0.159,0.398-0.159h1.546c0.485,0,0.924,0.133,1.318,0.398c0.394,0.265,0.682,0.61,0.864,1.034
			c0.061,0.151,0.106,0.303,0.136,0.455c0.03,0.151,0.046,0.307,0.046,0.466C159.976,138.641,159.839,139.081,159.566,139.467z
			 M158.759,138.637c0.061-0.166,0.091-0.329,0.091-0.488c0-0.243-0.068-0.474-0.205-0.693c-0.144-0.205-0.326-0.353-0.545-0.443
			c-0.159-0.068-0.322-0.103-0.489-0.103h-0.784c-0.061,0-0.11,0.02-0.148,0.057c-0.038,0.038-0.057,0.088-0.057,0.148v2.079
			c0,0.054,0.019,0.099,0.057,0.137c0.038,0.038,0.087,0.057,0.148,0.057h0.75h0.011h0.012h0.011c0.257,0,0.489-0.068,0.693-0.204
			C158.517,139.046,158.668,138.865,158.759,138.637z"/>
		<path d="M161.919,143.729c-0.174-0.121-0.33-0.263-0.466-0.426c-0.136-0.163-0.246-0.343-0.33-0.54
			c-0.113-0.272-0.17-0.557-0.17-0.853v-3.944c0-0.219,0.032-0.434,0.097-0.642c0.065-0.208,0.157-0.399,0.278-0.574
			c0.243-0.371,0.564-0.637,0.966-0.796c0.273-0.113,0.557-0.17,0.853-0.17c0.455,0,0.864,0.125,1.228,0.375
			c0.364,0.242,0.625,0.561,0.784,0.955c0.121,0.288,0.182,0.572,0.182,0.852v3.944c0,0.439-0.125,0.849-0.375,1.228
			c-0.121,0.175-0.263,0.33-0.426,0.466c-0.163,0.137-0.343,0.246-0.54,0.33c-0.272,0.113-0.557,0.17-0.852,0.17
			C162.707,144.104,162.298,143.979,161.919,143.729z M162.078,141.911c0,0.228,0.061,0.429,0.182,0.603
			c0.114,0.175,0.269,0.303,0.466,0.387c0.129,0.053,0.269,0.079,0.421,0.079c0.227,0,0.428-0.061,0.602-0.182
			c0.174-0.113,0.303-0.269,0.387-0.466c0.053-0.129,0.08-0.27,0.08-0.421v-3.944c0-0.227-0.061-0.424-0.182-0.591
			c-0.113-0.174-0.269-0.303-0.466-0.386c-0.144-0.061-0.284-0.092-0.42-0.092c-0.205,0-0.406,0.062-0.603,0.183
			c-0.174,0.113-0.303,0.272-0.386,0.477c-0.031,0.062-0.051,0.128-0.062,0.199c-0.012,0.072-0.017,0.143-0.017,0.21v3.944H162.078z
			"/>
		<path d="M167.022,135.795c0.151,0,0.282,0.056,0.392,0.165c0.11,0.11,0.165,0.241,0.165,0.393v6.444
			c0,0.053,0.019,0.099,0.057,0.137c0.038,0.037,0.087,0.057,0.148,0.057h1.409c0.151,0,0.282,0.055,0.392,0.165
			c0.11,0.109,0.165,0.24,0.165,0.392c0,0.159-0.055,0.294-0.165,0.403c-0.11,0.11-0.241,0.165-0.392,0.165h-2.171
			c-0.152,0-0.284-0.055-0.398-0.165c-0.113-0.109-0.17-0.244-0.17-0.403v-7.194c0-0.151,0.057-0.282,0.17-0.393
			C166.738,135.851,166.871,135.795,167.022,135.795z"/>
		<path d="M170.875,135.795c0.151,0,0.282,0.056,0.392,0.165c0.11,0.11,0.165,0.241,0.165,0.393v6.444
			c0,0.053,0.019,0.099,0.057,0.137c0.038,0.037,0.087,0.057,0.148,0.057h1.409c0.151,0,0.282,0.055,0.392,0.165
			c0.11,0.109,0.165,0.24,0.165,0.392c0,0.159-0.055,0.294-0.165,0.403c-0.11,0.11-0.241,0.165-0.392,0.165h-2.171
			c-0.152,0-0.284-0.055-0.398-0.165c-0.113-0.109-0.17-0.244-0.17-0.403v-7.194c0-0.151,0.057-0.282,0.17-0.393
			C170.591,135.851,170.724,135.795,170.875,135.795z"/>
		<path d="M177.797,143.729c-0.174-0.121-0.33-0.263-0.466-0.426c-0.136-0.163-0.246-0.343-0.33-0.54
			c-0.113-0.272-0.17-0.557-0.17-0.853v-3.944c0-0.219,0.032-0.434,0.097-0.642c0.065-0.208,0.157-0.399,0.278-0.574
			c0.243-0.371,0.564-0.637,0.966-0.796c0.273-0.113,0.557-0.17,0.853-0.17c0.455,0,0.864,0.125,1.228,0.375
			c0.364,0.242,0.625,0.561,0.784,0.955c0.121,0.288,0.182,0.572,0.182,0.852v3.944c0,0.439-0.125,0.849-0.375,1.228
			c-0.121,0.175-0.263,0.33-0.426,0.466c-0.163,0.137-0.343,0.246-0.54,0.33c-0.272,0.113-0.557,0.17-0.852,0.17
			C178.585,144.104,178.176,143.979,177.797,143.729z M177.957,141.911c0,0.228,0.061,0.429,0.182,0.603
			c0.114,0.175,0.269,0.303,0.466,0.387c0.129,0.053,0.269,0.079,0.421,0.079c0.227,0,0.428-0.061,0.602-0.182
			c0.174-0.113,0.303-0.269,0.387-0.466c0.053-0.129,0.08-0.27,0.08-0.421v-3.944c0-0.227-0.061-0.424-0.182-0.591
			c-0.113-0.174-0.269-0.303-0.466-0.386c-0.144-0.061-0.284-0.092-0.42-0.092c-0.205,0-0.406,0.062-0.603,0.183
			c-0.174,0.113-0.303,0.272-0.386,0.477c-0.031,0.062-0.051,0.128-0.062,0.199c-0.012,0.072-0.017,0.143-0.017,0.21v3.944H177.957z
			"/>
		<path d="M186.503,137.115c0.121,0.288,0.182,0.572,0.182,0.852v5.593c0,0.151-0.055,0.282-0.165,0.392s-0.241,0.165-0.392,0.165
			c-0.152,0-0.284-0.055-0.398-0.165c-0.114-0.109-0.17-0.24-0.17-0.392v-5.593c0-0.227-0.061-0.424-0.182-0.591
			c-0.113-0.174-0.269-0.303-0.466-0.386c-0.144-0.061-0.284-0.092-0.42-0.092c-0.205,0-0.406,0.062-0.603,0.183
			c-0.174,0.113-0.303,0.272-0.386,0.477c-0.03,0.062-0.051,0.128-0.062,0.199c-0.012,0.072-0.017,0.143-0.017,0.21v5.593
			c0,0.151-0.055,0.282-0.165,0.392c-0.11,0.11-0.244,0.165-0.403,0.165c-0.152,0-0.282-0.055-0.392-0.165
			c-0.11-0.109-0.165-0.24-0.165-0.392v-5.593c0-0.219,0.032-0.434,0.097-0.642s0.157-0.399,0.278-0.574
			c0.243-0.371,0.564-0.637,0.966-0.796c0.273-0.113,0.557-0.17,0.853-0.17c0.455,0,0.864,0.125,1.228,0.375
			C186.083,136.402,186.344,136.72,186.503,137.115z"/>
	</g>
	<g enable-background="new    ">
		<path d="M210.259,116.235c-0.253,0-0.476-0.096-0.665-0.285c-0.188-0.19-0.285-0.412-0.285-0.665v-12.028
			c0-0.253,0.096-0.475,0.285-0.665c0.178-0.177,0.398-0.266,0.665-0.266h2.317c0.799,0,1.533,0.222,2.205,0.665
			c0.646,0.456,1.121,1.032,1.424,1.729c0.203,0.481,0.305,0.995,0.305,1.539v6.023c0,0.811-0.222,1.545-0.664,2.204
			c-0.457,0.671-1.039,1.146-1.748,1.425c-0.494,0.215-1.002,0.323-1.521,0.323L210.259,116.235L210.259,116.235z M211.189,114.031
			c0,0.089,0.031,0.164,0.096,0.228c0.062,0.062,0.145,0.095,0.246,0.095h1.045c0.406,0,0.792-0.113,1.16-0.342
			c0.342-0.24,0.588-0.544,0.74-0.912c0.113-0.266,0.17-0.538,0.17-0.816v-6.023c0-0.393-0.119-0.779-0.359-1.159
			c-0.241-0.354-0.545-0.602-0.912-0.74c-0.254-0.114-0.52-0.172-0.799-0.172h-1.045c-0.102,0-0.184,0.032-0.246,0.096
			c-0.064,0.063-0.096,0.146-0.096,0.247V114.031L211.189,114.031z"/>
		<path d="M219.32,102.345c0.254,0,0.473,0.092,0.656,0.275c0.183,0.183,0.274,0.402,0.274,0.656v9.31
			c0,0.342,0.103,0.678,0.306,1.007c0.188,0.292,0.454,0.507,0.797,0.646c0.102,0.051,0.213,0.085,0.334,0.104
			c0.119,0.019,0.235,0.028,0.352,0.028c0.379,0,0.715-0.102,1.006-0.304c0.291-0.19,0.507-0.45,0.646-0.779
			c0.102-0.24,0.151-0.476,0.151-0.703v-9.31c0-0.254,0.093-0.473,0.275-0.656s0.401-0.275,0.655-0.275
			c0.252,0,0.472,0.092,0.654,0.275c0.184,0.183,0.275,0.402,0.275,0.656v9.31c0,0.76-0.209,1.444-0.627,2.052
			c-0.405,0.596-0.943,1.039-1.615,1.33c-0.443,0.19-0.918,0.285-1.424,0.285c-0.723,0-1.4-0.209-2.033-0.627
			c-0.292-0.202-0.551-0.44-0.779-0.713c-0.229-0.271-0.412-0.572-0.551-0.902c-0.189-0.456-0.285-0.931-0.285-1.425v-9.31
			c0-0.254,0.092-0.473,0.275-0.656C218.847,102.436,219.068,102.345,219.32,102.345z"/>
		<path d="M232.316,109.717c0.039,0.076,0.121,0.26,0.248,0.551c0.127,0.292,0.277,0.627,0.455,1.008
			c0.178,0.38,0.36,0.785,0.551,1.216c0.191,0.431,0.367,0.823,0.533,1.178c0.164,0.354,0.354,0.772,0.569,1.254
			c0.113,0.241,0.126,0.48,0.037,0.722c-0.088,0.241-0.254,0.418-0.494,0.532c-0.112,0.051-0.246,0.076-0.397,0.076
			c-0.178,0-0.346-0.048-0.504-0.143c-0.158-0.095-0.275-0.23-0.353-0.408v-0.02c-0.037-0.076-0.117-0.253-0.237-0.531
			c-0.119-0.279-0.266-0.608-0.437-0.988c-0.172-0.38-0.353-0.779-0.542-1.197s-0.367-0.811-0.532-1.178
			c-0.164-0.367-0.307-0.678-0.428-0.932c-0.119-0.253-0.192-0.398-0.218-0.437c-0.076-0.114-0.182-0.193-0.313-0.237
			s-0.271-0.035-0.407,0.028c-0.115,0.051-0.199,0.127-0.258,0.228c-0.058,0.102-0.085,0.203-0.085,0.305v4.579
			c0,0.253-0.093,0.472-0.274,0.655c-0.186,0.184-0.402,0.275-0.656,0.275c-0.24,0-0.456-0.082-0.646-0.247
			c-0.201-0.177-0.303-0.405-0.303-0.684v-12.045c0-0.279,0.102-0.507,0.303-0.685c0.19-0.164,0.406-0.247,0.646-0.247
			c0.254,0,0.472,0.092,0.656,0.275c0.183,0.184,0.274,0.402,0.274,0.656v4.578c0,0.102,0.027,0.203,0.085,0.305
			c0.059,0.102,0.143,0.178,0.258,0.228c0.139,0.063,0.274,0.073,0.407,0.028c0.134-0.044,0.237-0.123,0.313-0.237
			c0.024-0.038,0.099-0.184,0.218-0.437c0.121-0.254,0.264-0.563,0.428-0.932c0.165-0.367,0.343-0.76,0.532-1.178
			c0.189-0.418,0.37-0.817,0.542-1.197c0.171-0.38,0.315-0.709,0.437-0.987c0.121-0.278,0.2-0.456,0.237-0.532v-0.02
			c0.076-0.177,0.192-0.313,0.353-0.408c0.158-0.095,0.326-0.143,0.504-0.143c0.151,0,0.285,0.025,0.397,0.076
			c0.24,0.114,0.406,0.292,0.494,0.532c0.089,0.24,0.076,0.481-0.037,0.722c-0.217,0.481-0.405,0.899-0.569,1.254
			c-0.166,0.355-0.343,0.748-0.533,1.178c-0.189,0.432-0.373,0.837-0.551,1.217c-0.178,0.38-0.328,0.716-0.455,1.007
			s-0.209,0.475-0.248,0.551c-0.025,0.076-0.061,0.149-0.104,0.219c-0.045,0.069-0.092,0.136-0.143,0.199
			c0.051,0.062,0.098,0.13,0.143,0.199C232.257,109.569,232.291,109.641,232.316,109.717z"/>
		<path d="M238.529,104.284c-0.062,0.063-0.094,0.146-0.094,0.247v3.477c0,0.102,0.03,0.181,0.094,0.237
			c0.063,0.058,0.146,0.086,0.248,0.086h2.488c0.254,0,0.473,0.092,0.655,0.275s0.274,0.408,0.274,0.675
			c0,0.253-0.092,0.472-0.274,0.655s-0.401,0.275-0.655,0.275h-2.488c-0.103,0-0.185,0.032-0.248,0.095
			c-0.062,0.063-0.094,0.146-0.094,0.247v3.478c0,0.089,0.03,0.164,0.094,0.228c0.064,0.064,0.146,0.095,0.248,0.095h3.438
			c0.253,0,0.472,0.093,0.654,0.276s0.276,0.401,0.276,0.655c0,0.266-0.094,0.491-0.276,0.674c-0.185,0.185-0.401,0.276-0.654,0.276
			h-4.713c-0.253,0-0.472-0.092-0.655-0.276c-0.184-0.183-0.274-0.408-0.274-0.674v-12.028c0-0.253,0.092-0.472,0.274-0.655
			c0.184-0.183,0.402-0.275,0.655-0.275h4.713c0.253,0,0.472,0.092,0.654,0.275s0.276,0.402,0.276,0.655
			c0,0.254-0.094,0.472-0.276,0.655c-0.185,0.185-0.401,0.275-0.654,0.275h-3.438C238.676,104.188,238.594,104.22,238.529,104.284z"
			/>
	</g>
	<g enable-background="new    ">
		<path d="M210.242,133.253c-0.199,0-0.373-0.075-0.518-0.225c-0.146-0.15-0.218-0.325-0.218-0.525v-8.52
			c0-0.08-0.024-0.146-0.075-0.195c-0.05-0.049-0.115-0.075-0.195-0.075h-1.396c-0.198,0-0.372-0.072-0.517-0.218
			c-0.146-0.145-0.219-0.317-0.219-0.518c0-0.199,0.072-0.372,0.219-0.518c0.145-0.145,0.316-0.217,0.517-0.217h4.785
			c0.201,0,0.373,0.072,0.519,0.217c0.146,0.146,0.217,0.318,0.217,0.518s-0.071,0.373-0.217,0.518
			c-0.146,0.146-0.316,0.218-0.519,0.218h-1.379c-0.08,0-0.144,0.025-0.188,0.075c-0.045,0.05-0.067,0.115-0.067,0.195v8.52
			c0,0.2-0.074,0.375-0.226,0.525C210.617,133.178,210.441,133.253,210.242,133.253z"/>
		<path d="M219.887,127.119c-0.068,0.11-0.146,0.215-0.232,0.314c-0.084,0.101-0.172,0.19-0.262,0.271
			c-0.051,0.05-0.08,0.11-0.09,0.18c-0.01,0.07,0.004,0.13,0.045,0.18c0.279,0.37,0.449,0.775,0.51,1.216
			c0.029,0.18,0.062,0.393,0.099,0.637c0.035,0.245,0.069,0.501,0.104,0.766s0.069,0.52,0.104,0.765
			c0.034,0.245,0.067,0.448,0.097,0.607l0.047,0.345c0.029,0.2-0.019,0.383-0.144,0.548c-0.126,0.165-0.288,0.263-0.487,0.293
			c-0.021,0.01-0.056,0.015-0.104,0.015c-0.181,0-0.341-0.06-0.48-0.18c-0.14-0.12-0.225-0.275-0.254-0.465
			c0-0.011-0.019-0.138-0.053-0.383c-0.035-0.245-0.075-0.535-0.12-0.87s-0.093-0.675-0.143-1.021
			c-0.051-0.345-0.09-0.627-0.121-0.847c-0.051-0.29-0.18-0.525-0.391-0.705c-0.219-0.19-0.47-0.285-0.75-0.285h-0.988
			c-0.08,0-0.146,0.025-0.195,0.075c-0.049,0.05-0.075,0.115-0.075,0.194v3.735c0,0.21-0.071,0.388-0.217,0.532
			c-0.146,0.146-0.318,0.218-0.519,0.218c-0.209,0-0.388-0.072-0.533-0.218c-0.145-0.145-0.217-0.322-0.217-0.532v-9.495
			c0-0.2,0.074-0.375,0.226-0.524c0.141-0.141,0.315-0.211,0.524-0.211h2.041c0.64,0,1.219,0.176,1.738,0.525
			c0.521,0.351,0.9,0.805,1.141,1.365c0.08,0.2,0.141,0.4,0.181,0.6c0.04,0.2,0.062,0.405,0.062,0.615
			C220.428,126.029,220.248,126.609,219.887,127.119z M218.822,126.023c0.08-0.22,0.119-0.435,0.119-0.645
			c0-0.32-0.09-0.625-0.271-0.915c-0.188-0.27-0.43-0.465-0.72-0.585c-0.21-0.09-0.426-0.135-0.645-0.135h-1.035
			c-0.08,0-0.146,0.024-0.195,0.075c-0.051,0.05-0.075,0.114-0.075,0.194v2.745c0,0.07,0.024,0.13,0.075,0.18
			c0.05,0.051,0.115,0.075,0.195,0.075h0.988h0.016h0.017h0.015c0.34,0,0.646-0.09,0.916-0.27
			C218.502,126.563,218.702,126.324,218.822,126.023z"/>
		<path d="M222.992,132.744c-0.23-0.16-0.436-0.348-0.615-0.562c-0.179-0.214-0.324-0.452-0.436-0.713
			c-0.149-0.359-0.226-0.734-0.226-1.125v-5.205c0-0.29,0.043-0.572,0.128-0.848c0.086-0.274,0.208-0.527,0.367-0.757
			c0.32-0.49,0.745-0.84,1.275-1.05c0.359-0.15,0.734-0.226,1.125-0.226c0.6,0,1.14,0.165,1.619,0.495
			c0.479,0.32,0.824,0.74,1.035,1.26c0.159,0.381,0.24,0.756,0.24,1.125v5.205c0,0.58-0.166,1.12-0.496,1.62
			c-0.16,0.23-0.348,0.435-0.562,0.615c-0.216,0.18-0.452,0.325-0.712,0.435c-0.36,0.15-0.735,0.226-1.125,0.226
			C224.032,133.239,223.492,133.074,222.992,132.744z M223.202,130.343c0,0.3,0.08,0.565,0.239,0.795
			c0.149,0.23,0.354,0.4,0.615,0.51c0.17,0.07,0.354,0.105,0.555,0.105c0.301,0,0.564-0.08,0.796-0.24
			c0.229-0.149,0.399-0.354,0.51-0.615c0.069-0.17,0.104-0.354,0.104-0.555v-5.205c0-0.3-0.08-0.56-0.239-0.779
			c-0.149-0.23-0.354-0.4-0.615-0.511c-0.19-0.08-0.375-0.12-0.556-0.12c-0.271,0-0.534,0.08-0.795,0.24
			c-0.229,0.15-0.399,0.36-0.51,0.63c-0.039,0.08-0.066,0.168-0.082,0.263c-0.017,0.096-0.022,0.188-0.022,0.277V130.343z"/>
		<path d="M229.729,122.273c0.199,0,0.371,0.073,0.518,0.218c0.145,0.146,0.218,0.317,0.218,0.518v8.505
			c0,0.07,0.024,0.13,0.074,0.181c0.051,0.05,0.114,0.074,0.194,0.074h1.859c0.201,0,0.373,0.073,0.518,0.218
			c0.146,0.146,0.22,0.317,0.22,0.518c0,0.21-0.073,0.388-0.22,0.532c-0.145,0.146-0.315,0.218-0.518,0.218h-2.863
			c-0.201,0-0.375-0.072-0.524-0.218c-0.149-0.145-0.226-0.322-0.226-0.532v-9.495c0-0.2,0.074-0.372,0.226-0.518
			C229.354,122.346,229.527,122.273,229.729,122.273z"/>
		<path d="M234.812,122.273c0.198,0,0.371,0.073,0.518,0.218c0.145,0.146,0.217,0.317,0.217,0.518v8.505
			c0,0.07,0.025,0.13,0.076,0.181c0.049,0.05,0.113,0.074,0.193,0.074h1.86c0.199,0,0.372,0.073,0.519,0.218
			c0.145,0.146,0.217,0.317,0.217,0.518c0,0.21-0.072,0.388-0.217,0.532c-0.146,0.146-0.318,0.218-0.519,0.218h-2.864
			c-0.201,0-0.375-0.072-0.525-0.218c-0.15-0.145-0.225-0.322-0.225-0.532v-9.495c0-0.2,0.073-0.372,0.225-0.518
			C234.438,122.346,234.611,122.273,234.812,122.273z"/>
		<path d="M241.188,123.954c-0.189,0.13-0.33,0.3-0.42,0.51c-0.061,0.141-0.09,0.29-0.09,0.45c0,0.18,0.034,0.345,0.104,0.495
			c0.06,0.17,0.165,0.354,0.315,0.555c0.118,0.17,0.278,0.353,0.479,0.548c0.199,0.194,0.449,0.422,0.75,0.683
			c0.13,0.109,0.271,0.232,0.428,0.367s0.309,0.282,0.458,0.442c0.159,0.16,0.297,0.312,0.412,0.457
			c0.115,0.146,0.224,0.288,0.321,0.428c0.16,0.24,0.275,0.465,0.346,0.675c0.141,0.36,0.21,0.711,0.21,1.051
			c0,0.53-0.153,1.02-0.465,1.47c-0.29,0.42-0.675,0.74-1.154,0.96c-0.341,0.14-0.681,0.21-1.021,0.21
			c-0.54,0-1.035-0.155-1.485-0.465c-0.43-0.29-0.75-0.675-0.96-1.155c-0.13-0.319-0.193-0.66-0.193-1.02
			c0-0.21,0.071-0.388,0.217-0.533c0.145-0.145,0.316-0.217,0.518-0.217s0.373,0.072,0.518,0.217
			c0.146,0.146,0.219,0.323,0.219,0.533c0,0.22,0.064,0.435,0.193,0.645c0.141,0.19,0.312,0.33,0.512,0.42
			c0.148,0.061,0.305,0.09,0.465,0.09c0.238,0,0.455-0.064,0.646-0.194c0.189-0.141,0.33-0.311,0.421-0.511
			c0.06-0.149,0.09-0.305,0.09-0.465c0-0.18-0.035-0.345-0.105-0.495c-0.061-0.17-0.16-0.35-0.3-0.54
			c-0.13-0.17-0.292-0.354-0.487-0.555c-0.195-0.201-0.447-0.43-0.758-0.689c-0.189-0.17-0.383-0.343-0.578-0.518
			c-0.193-0.175-0.377-0.362-0.547-0.562c-0.391-0.42-0.67-0.846-0.84-1.275c-0.141-0.36-0.211-0.71-0.211-1.05
			c0-0.271,0.041-0.53,0.121-0.78s0.188-0.484,0.33-0.705c0.318-0.439,0.709-0.755,1.17-0.944c0.31-0.141,0.648-0.211,1.02-0.211
			c0.55,0,1.045,0.15,1.484,0.45c0.421,0.29,0.74,0.675,0.961,1.155c0.13,0.32,0.195,0.665,0.195,1.035
			c0,0.2-0.074,0.372-0.219,0.518c-0.146,0.145-0.316,0.217-0.518,0.217s-0.372-0.072-0.518-0.217
			c-0.146-0.146-0.219-0.317-0.219-0.518c0-0.23-0.064-0.45-0.195-0.66c-0.14-0.189-0.313-0.33-0.523-0.42
			c-0.141-0.061-0.29-0.09-0.45-0.09C241.602,123.744,241.387,123.814,241.188,123.954z"/>
	</g>
	<g enable-background="new    ">
		<path d="M208.439,139.79c0-0.106,0.039-0.199,0.117-0.276c0.076-0.077,0.172-0.116,0.283-0.116c0.105,0,0.198,0.039,0.276,0.116
			c0.075,0.077,0.114,0.17,0.114,0.276l-0.008,1.567v2.488c0,0.128,0.037,0.245,0.111,0.353c0.07,0.101,0.16,0.176,0.271,0.224
			c0.069,0.032,0.149,0.048,0.24,0.048c0.117,0,0.231-0.034,0.346-0.104c0.11-0.075,0.186-0.168,0.223-0.28
			c0.033-0.069,0.049-0.149,0.049-0.24v-4.056c0-0.106,0.039-0.199,0.115-0.276c0.078-0.077,0.172-0.116,0.285-0.116
			c0.104,0,0.197,0.039,0.275,0.116c0.076,0.077,0.115,0.17,0.115,0.276v4.056c0,0.128,0.037,0.245,0.112,0.353
			c0.067,0.101,0.159,0.176,0.271,0.224c0.069,0.032,0.149,0.048,0.24,0.048c0.117,0,0.232-0.034,0.344-0.104
			c0.111-0.075,0.188-0.168,0.225-0.28c0.031-0.069,0.048-0.149,0.048-0.24v-4.056c0-0.106,0.039-0.199,0.116-0.276
			c0.076-0.077,0.173-0.116,0.283-0.116c0.107,0,0.199,0.039,0.276,0.116s0.116,0.17,0.116,0.276v4.056
			c0,0.299-0.08,0.562-0.24,0.792c-0.154,0.229-0.363,0.397-0.624,0.504c-0.085,0.043-0.173,0.072-0.265,0.088
			c-0.09,0.017-0.184,0.024-0.279,0.024c-0.288,0-0.553-0.08-0.792-0.24c-0.085-0.053-0.16-0.114-0.224-0.184
			c-0.129,0.133-0.286,0.237-0.473,0.312c-0.087,0.043-0.175,0.072-0.265,0.088c-0.091,0.017-0.185,0.024-0.28,0.024
			c-0.287,0-0.552-0.08-0.792-0.24c-0.229-0.154-0.397-0.359-0.504-0.616c-0.073-0.181-0.112-0.365-0.112-0.552v-2.488v-1.569
			H208.439z"/>
		<path d="M214.977,140.213c-0.026,0.026-0.039,0.062-0.039,0.104v1.464c0,0.042,0.013,0.075,0.039,0.1
			c0.026,0.024,0.062,0.036,0.104,0.036h1.049c0.104,0,0.198,0.039,0.274,0.116c0.078,0.077,0.117,0.172,0.117,0.284
			c0,0.106-0.039,0.198-0.117,0.275c-0.076,0.077-0.17,0.116-0.274,0.116h-1.049c-0.043,0-0.077,0.014-0.104,0.04
			c-0.026,0.026-0.039,0.062-0.039,0.104v1.465c0,0.037,0.013,0.069,0.039,0.096c0.026,0.026,0.062,0.04,0.104,0.04h1.448
			c0.105,0,0.197,0.038,0.275,0.116c0.077,0.077,0.115,0.169,0.115,0.275c0,0.112-0.038,0.207-0.115,0.284
			c-0.078,0.077-0.17,0.116-0.275,0.116h-1.983c-0.106,0-0.198-0.039-0.276-0.116c-0.076-0.077-0.115-0.172-0.115-0.284v-5.063
			c0-0.107,0.039-0.199,0.115-0.276c0.078-0.077,0.17-0.116,0.276-0.116h1.983c0.105,0,0.197,0.039,0.275,0.116
			c0.077,0.077,0.115,0.169,0.115,0.276c0,0.106-0.038,0.198-0.115,0.275c-0.078,0.078-0.17,0.116-0.275,0.116h-1.448
			C215.037,140.173,215.003,140.187,214.977,140.213z"/>
		<path d="M220.209,140.637c-0.043,0.097-0.064,0.192-0.064,0.288v2.776c0,0.144,0.043,0.285,0.129,0.424
			c0.096,0.128,0.207,0.219,0.336,0.271c0.08,0.038,0.179,0.057,0.296,0.057c0.153,0,0.293-0.043,0.415-0.128
			c0.123-0.08,0.214-0.189,0.271-0.328c0.043-0.102,0.064-0.2,0.064-0.296v-0.473c0-0.037-0.014-0.068-0.04-0.096
			c-0.026-0.026-0.062-0.04-0.104-0.04h-0.344c-0.105,0-0.197-0.038-0.275-0.116c-0.078-0.077-0.115-0.172-0.115-0.283
			c0-0.107,0.037-0.199,0.115-0.276s0.17-0.116,0.275-0.116h0.881c0.111,0,0.205,0.04,0.279,0.12
			c0.074,0.075,0.111,0.165,0.111,0.272v1.008c0,0.319-0.088,0.607-0.265,0.863c-0.17,0.251-0.395,0.438-0.672,0.561
			c-0.19,0.08-0.392,0.12-0.601,0.12c-0.31,0-0.598-0.088-0.863-0.265c-0.122-0.085-0.23-0.185-0.327-0.3
			c-0.097-0.114-0.174-0.241-0.231-0.38c-0.08-0.191-0.121-0.392-0.121-0.6v-2.776c0-0.154,0.021-0.305,0.063-0.452
			c0.043-0.146,0.109-0.281,0.2-0.403c0.171-0.262,0.396-0.448,0.682-0.561c0.18-0.08,0.379-0.12,0.592-0.12h0.008
			c0.313,0,0.6,0.088,0.854,0.265c0.123,0.085,0.232,0.184,0.328,0.296c0.097,0.111,0.175,0.237,0.231,0.376
			c0.08,0.191,0.121,0.392,0.121,0.6c0,0.106-0.039,0.2-0.116,0.28s-0.171,0.12-0.275,0.12c-0.106,0-0.198-0.04-0.276-0.12
			c-0.076-0.08-0.115-0.174-0.115-0.28c0-0.139-0.043-0.277-0.129-0.416c-0.096-0.128-0.207-0.219-0.336-0.271
			c-0.096-0.043-0.191-0.063-0.287-0.063c-0.08,0-0.154,0.011-0.225,0.032c-0.068,0.021-0.136,0.054-0.199,0.096
			C220.357,140.381,220.268,140.494,220.209,140.637z"/>
		<path d="M223.889,144.981c-0.123-0.085-0.231-0.185-0.328-0.3c-0.096-0.114-0.174-0.241-0.231-0.38
			c-0.08-0.191-0.119-0.392-0.119-0.6v-2.776c0-0.154,0.021-0.305,0.067-0.452c0.046-0.146,0.109-0.281,0.195-0.403
			c0.17-0.262,0.396-0.448,0.68-0.561c0.191-0.08,0.394-0.12,0.601-0.12c0.32,0,0.608,0.088,0.864,0.265
			c0.256,0.17,0.439,0.395,0.552,0.672c0.086,0.202,0.129,0.402,0.129,0.6v2.776c0,0.31-0.088,0.597-0.265,0.863
			c-0.085,0.123-0.186,0.232-0.301,0.328c-0.114,0.097-0.241,0.174-0.381,0.232c-0.19,0.08-0.391,0.12-0.6,0.12
			C224.443,145.246,224.154,145.158,223.889,144.981z M224,143.702c0,0.16,0.043,0.301,0.129,0.424
			c0.08,0.123,0.188,0.213,0.327,0.271c0.091,0.038,0.188,0.057,0.296,0.057c0.16,0,0.303-0.043,0.424-0.128
			c0.123-0.08,0.215-0.189,0.272-0.328c0.036-0.091,0.056-0.189,0.056-0.296v-2.776c0-0.16-0.043-0.299-0.127-0.416
			c-0.08-0.122-0.189-0.213-0.328-0.271c-0.102-0.043-0.201-0.063-0.297-0.063c-0.145,0-0.285,0.043-0.424,0.128
			c-0.123,0.08-0.213,0.192-0.271,0.336c-0.021,0.043-0.035,0.09-0.045,0.141c-0.008,0.051-0.012,0.1-0.012,0.147V143.702z"/>
		<path d="M229.312,139.389c0.105,0,0.197,0.039,0.274,0.116c0.078,0.077,0.116,0.169,0.116,0.276v1.991
			c0,0.043,0.013,0.078,0.04,0.104c0.026,0.026,0.059,0.04,0.096,0.04h1.146c0.037,0,0.067-0.014,0.096-0.04
			c0.027-0.026,0.04-0.062,0.04-0.104v-1.991c0-0.107,0.038-0.199,0.116-0.276c0.076-0.077,0.168-0.116,0.274-0.116
			c0.112,0,0.207,0.039,0.285,0.116c0.076,0.077,0.115,0.169,0.115,0.276v5.063c0,0.112-0.039,0.207-0.115,0.284
			c-0.078,0.077-0.173,0.116-0.285,0.116c-0.106,0-0.198-0.039-0.274-0.116c-0.078-0.077-0.116-0.172-0.116-0.284v-2
			c0-0.042-0.013-0.077-0.04-0.104c-0.027-0.027-0.059-0.04-0.096-0.04h-1.146c-0.037,0-0.067,0.013-0.096,0.04
			c-0.027,0.026-0.04,0.062-0.04,0.104v2c0,0.112-0.038,0.207-0.116,0.284c-0.077,0.077-0.169,0.116-0.274,0.116
			c-0.112,0-0.207-0.039-0.285-0.116c-0.076-0.077-0.115-0.172-0.115-0.284v-5.063c0-0.107,0.039-0.199,0.115-0.276
			C229.105,139.428,229.2,139.389,229.312,139.389z"/>
		<path d="M235.561,140.333c0.084,0.203,0.127,0.402,0.127,0.6v3.929c0,0.106-0.037,0.198-0.114,0.275
			c-0.078,0.077-0.173,0.116-0.284,0.116c-0.105,0-0.198-0.039-0.275-0.116c-0.078-0.077-0.115-0.169-0.115-0.275v-1.616
			c0-0.043-0.015-0.077-0.041-0.104c-0.026-0.026-0.062-0.04-0.104-0.04h-1.216c-0.043,0-0.077,0.014-0.104,0.04
			c-0.026,0.027-0.039,0.062-0.039,0.104v1.616c0,0.106-0.039,0.198-0.117,0.275c-0.076,0.077-0.172,0.116-0.283,0.116
			c-0.107,0-0.199-0.039-0.276-0.116c-0.077-0.077-0.116-0.169-0.116-0.275v-3.929c0-0.154,0.023-0.305,0.068-0.452
			c0.045-0.146,0.111-0.281,0.195-0.403c0.172-0.262,0.398-0.448,0.681-0.561c0.192-0.08,0.392-0.12,0.601-0.12
			c0.319,0,0.607,0.089,0.863,0.265C235.264,139.832,235.448,140.056,235.561,140.333z M234.752,142.309
			c0.043,0,0.077-0.012,0.104-0.036c0.027-0.023,0.041-0.057,0.041-0.1v-1.24c0-0.16-0.043-0.298-0.129-0.416
			c-0.08-0.122-0.188-0.213-0.328-0.271c-0.101-0.043-0.198-0.064-0.295-0.064c-0.145,0-0.285,0.043-0.424,0.128
			c-0.123,0.08-0.214,0.192-0.271,0.336c-0.021,0.043-0.036,0.09-0.045,0.141c-0.008,0.051-0.012,0.1-0.012,0.147v1.24
			c0,0.043,0.014,0.076,0.039,0.1c0.027,0.024,0.062,0.036,0.104,0.036L234.752,142.309L234.752,142.309z"/>
		<path d="M239.4,141.981c-0.037,0.06-0.08,0.115-0.125,0.169c-0.045,0.053-0.092,0.101-0.14,0.144
			c-0.026,0.026-0.043,0.059-0.049,0.096c-0.005,0.038,0.003,0.069,0.024,0.097c0.148,0.197,0.238,0.413,0.271,0.647
			c0.016,0.096,0.033,0.21,0.051,0.34c0.021,0.131,0.039,0.267,0.058,0.408c0.019,0.141,0.036,0.277,0.057,0.408
			c0.019,0.131,0.035,0.238,0.052,0.324l0.023,0.184c0.018,0.106-0.009,0.204-0.075,0.292c-0.067,0.088-0.153,0.14-0.261,0.156
			c-0.012,0.005-0.029,0.008-0.057,0.008c-0.096,0-0.182-0.032-0.256-0.096s-0.121-0.146-0.137-0.248
			c0-0.006-0.009-0.073-0.027-0.204c-0.02-0.131-0.041-0.285-0.063-0.464c-0.022-0.179-0.049-0.36-0.076-0.544
			c-0.026-0.185-0.048-0.335-0.063-0.452c-0.025-0.155-0.096-0.28-0.207-0.376c-0.117-0.102-0.252-0.152-0.4-0.152h-0.527
			c-0.043,0-0.078,0.014-0.104,0.04c-0.025,0.026-0.04,0.062-0.04,0.104v1.991c0,0.112-0.039,0.207-0.115,0.284
			c-0.077,0.077-0.17,0.116-0.276,0.116c-0.111,0-0.207-0.039-0.283-0.116c-0.078-0.077-0.116-0.172-0.116-0.284v-5.063
			c0-0.106,0.04-0.2,0.12-0.28c0.074-0.074,0.168-0.112,0.279-0.112h1.088c0.342,0,0.65,0.094,0.929,0.28
			c0.278,0.186,0.479,0.43,0.608,0.729c0.043,0.106,0.074,0.213,0.096,0.319c0.021,0.107,0.031,0.217,0.031,0.328
			C239.688,141.4,239.592,141.709,239.4,141.981z M238.832,141.397c0.043-0.117,0.064-0.231,0.064-0.344
			c0-0.171-0.049-0.333-0.146-0.488c-0.103-0.144-0.229-0.247-0.384-0.312c-0.112-0.048-0.227-0.072-0.344-0.072h-0.553
			c-0.043,0-0.078,0.014-0.104,0.04c-0.026,0.027-0.04,0.062-0.04,0.104v1.464c0,0.037,0.014,0.069,0.04,0.096
			c0.025,0.027,0.062,0.04,0.104,0.04H238h0.008h0.008h0.01c0.181,0,0.344-0.048,0.486-0.144
			C238.662,141.685,238.768,141.557,238.832,141.397z"/>
		<path d="M240.809,145.246c-0.106,0-0.201-0.04-0.281-0.12c-0.079-0.08-0.118-0.173-0.118-0.28v-5.063
			c0-0.107,0.039-0.2,0.118-0.28c0.076-0.074,0.168-0.112,0.281-0.112h0.976c0.336,0,0.646,0.094,0.929,0.28
			c0.271,0.192,0.473,0.435,0.602,0.728c0.084,0.203,0.127,0.419,0.127,0.648v2.536c0,0.341-0.094,0.65-0.279,0.928
			c-0.192,0.283-0.438,0.482-0.736,0.601c-0.208,0.09-0.422,0.136-0.641,0.136h-0.977V145.246z M241.199,144.318
			c0,0.037,0.014,0.069,0.041,0.096c0.025,0.026,0.061,0.04,0.104,0.04h0.439c0.172,0,0.334-0.048,0.488-0.145
			c0.145-0.101,0.248-0.229,0.312-0.384c0.048-0.112,0.072-0.227,0.072-0.344v-2.536c0-0.165-0.052-0.328-0.152-0.488
			c-0.103-0.149-0.229-0.253-0.385-0.312c-0.104-0.048-0.22-0.072-0.336-0.072h-0.439c-0.043,0-0.077,0.014-0.104,0.04
			c-0.027,0.026-0.041,0.062-0.041,0.104L241.199,144.318L241.199,144.318z"/>
	</g>
	<path fill="#F1C40F" d="M182.194,50c1.898,5.596,6.978,9.406,12.808,9.422c5.831-0.016,10.909-3.826,12.805-9.422
		c5.422,1.672,31.172,9.625,32.967,10.196c0.291,0.118,0.893,0.64,1.285,1.575c0.146,0.336,0.32,0.881,0.32,1.511
		c0,0.375-0.062,0.782-0.234,1.19l-0.021,0.056l-0.021,0.062c-1.486,4.588-3.344,11.582-4.045,14.213l-0.281,1.057
		c-0.08,0.291-0.881,0.877-1.895,0.775l-14.539-1.496v51.994c0,1.041-0.602,3.002-2.879,3.002h-46.922
		c-2.274,0-2.878-1.961-2.878-3.002V79.141l-14.538,1.494c-1.013,0.103-1.817-0.484-1.897-0.774l-0.278-1.048
		c-0.702-2.635-2.554-9.629-4.046-14.221l-0.022-0.062l-0.021-0.057c-0.172-0.407-0.238-0.813-0.238-1.189
		c0-0.63,0.181-1.175,0.326-1.511c0.395-0.935,0.99-1.457,1.279-1.575C151.024,59.625,176.776,51.674,182.194,50z"/>
</g>
<g>
	<g>
		<path fill="none" stroke="#333333" stroke-width="3" stroke-miterlimit="10" d="M249.258,79.063
			c18.209,9.288,29.961,22.154,36.988,32.203"/>
		<g>
			<polygon fill="#333333" points="272.164,109.705 284.141,108.205 291.375,98.542 295,126.894 			"/>
		</g>
	</g>
</g>
<path fill="none" stroke="#333333" stroke-width="3" stroke-miterlimit="10" d="M100,126.894c0,0,8.748-29.995,41.268-47.569"/>
<g enable-background="new    ">
	<path d="M178.171,89.037c-0.261,0-0.489-0.098-0.685-0.294c-0.196-0.195-0.293-0.424-0.293-0.685v-12.39
		c0-0.261,0.098-0.489,0.293-0.685c0.183-0.183,0.411-0.274,0.685-0.274h2.388c0.822,0,1.579,0.229,2.271,0.686
		c0.666,0.47,1.155,1.063,1.468,1.781c0.208,0.495,0.313,1.024,0.313,1.585v6.204c0,0.835-0.228,1.593-0.685,2.271
		c-0.47,0.691-1.07,1.182-1.8,1.468c-0.509,0.223-1.031,0.333-1.566,0.333H178.171z M179.13,86.766c0,0.092,0.032,0.17,0.098,0.235
		s0.15,0.098,0.254,0.098h1.077c0.417,0,0.815-0.117,1.194-0.353c0.353-0.248,0.607-0.561,0.763-0.939
		c0.118-0.274,0.176-0.555,0.176-0.842v-6.204c0-0.404-0.124-0.803-0.372-1.194c-0.248-0.365-0.562-0.619-0.939-0.763
		c-0.261-0.118-0.535-0.177-0.822-0.177h-1.077c-0.104,0-0.189,0.033-0.254,0.099s-0.098,0.149-0.098,0.254V86.766z"/>
	<path d="M187.507,74.729c0.261,0,0.486,0.095,0.675,0.284s0.284,0.414,0.284,0.675v9.591c0,0.353,0.104,0.698,0.313,1.037
		c0.196,0.301,0.47,0.522,0.822,0.666c0.104,0.052,0.219,0.088,0.343,0.107c0.124,0.02,0.245,0.029,0.362,0.029
		c0.392,0,0.737-0.104,1.038-0.313c0.3-0.195,0.521-0.463,0.666-0.803c0.104-0.247,0.156-0.489,0.156-0.724v-9.591
		c0-0.261,0.095-0.485,0.284-0.675c0.189-0.189,0.414-0.284,0.675-0.284c0.261,0,0.486,0.095,0.675,0.284
		c0.189,0.189,0.284,0.414,0.284,0.675v9.591c0,0.783-0.215,1.487-0.646,2.113c-0.418,0.614-0.972,1.07-1.664,1.37
		c-0.457,0.196-0.946,0.294-1.468,0.294c-0.744,0-1.442-0.215-2.094-0.646c-0.3-0.209-0.567-0.453-0.802-0.734
		c-0.235-0.28-0.424-0.59-0.567-0.93c-0.196-0.47-0.294-0.959-0.294-1.468v-9.591c0-0.261,0.095-0.485,0.284-0.675
		C187.021,74.824,187.246,74.729,187.507,74.729z"/>
	<path d="M200.895,82.324c0.039,0.078,0.125,0.268,0.254,0.567c0.131,0.3,0.287,0.646,0.472,1.037
		c0.182,0.392,0.371,0.81,0.567,1.253c0.194,0.443,0.377,0.848,0.547,1.213c0.17,0.366,0.365,0.796,0.588,1.292
		c0.117,0.248,0.13,0.496,0.039,0.744c-0.092,0.248-0.262,0.431-0.51,0.548c-0.117,0.052-0.254,0.078-0.41,0.078
		c-0.184,0-0.355-0.049-0.52-0.146c-0.163-0.099-0.283-0.238-0.361-0.421v-0.02c-0.039-0.078-0.121-0.261-0.244-0.548
		c-0.125-0.287-0.274-0.627-0.45-1.019c-0.177-0.391-0.362-0.802-0.558-1.232c-0.195-0.431-0.378-0.835-0.548-1.214
		c-0.169-0.378-0.316-0.697-0.44-0.959c-0.124-0.261-0.199-0.411-0.225-0.45c-0.078-0.117-0.186-0.198-0.323-0.244
		c-0.137-0.046-0.277-0.036-0.421,0.029c-0.117,0.052-0.206,0.13-0.264,0.234s-0.088,0.209-0.088,0.313v4.717
		c0,0.261-0.095,0.486-0.284,0.675s-0.414,0.284-0.675,0.284c-0.248,0-0.47-0.085-0.665-0.255c-0.209-0.182-0.313-0.417-0.313-0.704
		V75.688c0-0.286,0.104-0.521,0.313-0.704c0.195-0.17,0.417-0.255,0.665-0.255c0.261,0,0.486,0.095,0.675,0.284
		s0.284,0.414,0.284,0.675v4.717c0,0.105,0.029,0.209,0.088,0.313c0.059,0.104,0.147,0.183,0.264,0.235
		c0.144,0.065,0.284,0.075,0.421,0.029s0.245-0.128,0.323-0.245c0.026-0.039,0.101-0.188,0.225-0.45
		c0.124-0.261,0.271-0.58,0.44-0.959c0.169-0.378,0.353-0.783,0.548-1.213c0.196-0.431,0.381-0.842,0.558-1.233
		c0.176-0.391,0.325-0.73,0.45-1.018c0.123-0.288,0.205-0.47,0.244-0.548v-0.02c0.078-0.183,0.198-0.323,0.361-0.421
		c0.163-0.099,0.336-0.147,0.52-0.147c0.156,0,0.293,0.026,0.41,0.078c0.248,0.118,0.418,0.301,0.51,0.549
		c0.091,0.248,0.078,0.496-0.039,0.743c-0.223,0.496-0.418,0.927-0.588,1.292c-0.17,0.365-0.353,0.771-0.547,1.214
		c-0.196,0.443-0.387,0.86-0.567,1.252c-0.185,0.392-0.341,0.737-0.472,1.038c-0.129,0.3-0.215,0.489-0.254,0.567
		c-0.025,0.078-0.062,0.153-0.106,0.225c-0.046,0.072-0.097,0.141-0.146,0.206c0.051,0.065,0.101,0.134,0.146,0.205
		C200.832,82.17,200.868,82.245,200.895,82.324z"/>
	<path d="M207.295,76.726c-0.066,0.065-0.098,0.149-0.098,0.254v3.582c0,0.104,0.031,0.186,0.098,0.244
		c0.064,0.059,0.148,0.089,0.254,0.089h2.564c0.261,0,0.486,0.095,0.675,0.283c0.188,0.189,0.284,0.421,0.284,0.695
		c0,0.261-0.096,0.486-0.284,0.675s-0.414,0.284-0.675,0.284h-2.564c-0.104,0-0.189,0.032-0.254,0.098
		c-0.066,0.065-0.098,0.15-0.098,0.254v3.582c0,0.092,0.031,0.17,0.098,0.235c0.064,0.065,0.148,0.098,0.254,0.098h3.543
		c0.262,0,0.486,0.095,0.676,0.283c0.188,0.189,0.283,0.415,0.283,0.676c0,0.273-0.096,0.506-0.283,0.694
		c-0.188,0.189-0.414,0.284-0.676,0.284h-4.854c-0.262,0-0.486-0.095-0.676-0.284c-0.189-0.188-0.283-0.421-0.283-0.694v-12.39
		c0-0.261,0.094-0.485,0.283-0.675c0.188-0.19,0.414-0.284,0.676-0.284h4.854c0.262,0,0.486,0.095,0.676,0.284
		c0.188,0.189,0.283,0.414,0.283,0.675c0,0.262-0.096,0.486-0.283,0.676c-0.188,0.19-0.414,0.283-0.676,0.283h-3.543
		C207.443,76.627,207.359,76.661,207.295,76.726z"/>
</g>
<g enable-background="new    ">
	<path d="M178.664,105.056c-0.2,0-0.372-0.075-0.516-0.225c-0.145-0.149-0.217-0.324-0.217-0.523v-8.502
		c0-0.079-0.025-0.145-0.075-0.194c-0.05-0.05-0.115-0.074-0.195-0.074h-1.392c-0.2,0-0.372-0.072-0.517-0.218
		c-0.145-0.145-0.217-0.316-0.217-0.516c0-0.2,0.072-0.372,0.217-0.517s0.317-0.217,0.517-0.217h4.774
		c0.199,0,0.372,0.072,0.516,0.217s0.217,0.316,0.217,0.517c0,0.199-0.073,0.371-0.217,0.516c-0.145,0.146-0.317,0.218-0.516,0.218
		h-1.377c-0.08,0-0.142,0.024-0.187,0.074c-0.045,0.05-0.067,0.115-0.067,0.194v8.502c0,0.199-0.075,0.374-0.225,0.523
		C179.038,104.981,178.863,105.056,178.664,105.056z"/>
	<path d="M188.287,98.935c-0.07,0.109-0.147,0.214-0.232,0.313c-0.085,0.101-0.172,0.19-0.262,0.27c-0.05,0.051-0.08,0.11-0.09,0.18
		c-0.01,0.07,0.005,0.13,0.045,0.18c0.279,0.369,0.449,0.773,0.509,1.213c0.03,0.179,0.062,0.392,0.097,0.636
		s0.07,0.499,0.105,0.764c0.035,0.264,0.07,0.519,0.105,0.763c0.035,0.245,0.067,0.447,0.097,0.606l0.045,0.344
		c0.03,0.2-0.018,0.382-0.142,0.547c-0.125,0.164-0.287,0.262-0.487,0.292c-0.02,0.01-0.055,0.015-0.104,0.015
		c-0.18,0-0.339-0.06-0.479-0.18c-0.14-0.12-0.225-0.274-0.254-0.464c0-0.01-0.018-0.137-0.053-0.382
		c-0.035-0.244-0.075-0.533-0.12-0.868c-0.045-0.334-0.092-0.673-0.142-1.018c-0.05-0.344-0.09-0.626-0.12-0.846
		c-0.05-0.289-0.18-0.523-0.389-0.703c-0.22-0.189-0.469-0.284-0.749-0.284h-0.988c-0.08,0-0.145,0.024-0.194,0.074
		c-0.05,0.05-0.075,0.115-0.075,0.194v3.728c0,0.209-0.072,0.387-0.217,0.531s-0.317,0.217-0.516,0.217
		c-0.21,0-0.387-0.072-0.532-0.217s-0.217-0.322-0.217-0.531v-9.475c0-0.199,0.075-0.374,0.225-0.523
		c0.14-0.14,0.314-0.21,0.524-0.21h2.035c0.639,0,1.217,0.175,1.736,0.524c0.519,0.349,0.898,0.803,1.137,1.361
		c0.08,0.2,0.14,0.399,0.18,0.599c0.04,0.2,0.06,0.404,0.06,0.614C188.826,97.847,188.646,98.425,188.287,98.935z M187.225,97.842
		c0.08-0.22,0.12-0.435,0.12-0.644c0-0.319-0.09-0.624-0.269-0.913c-0.19-0.27-0.429-0.464-0.719-0.584
		c-0.209-0.09-0.424-0.135-0.644-0.135h-1.033c-0.08,0-0.145,0.025-0.194,0.075c-0.05,0.05-0.075,0.114-0.075,0.194v2.739
		c0,0.069,0.025,0.13,0.075,0.18c0.05,0.05,0.114,0.074,0.194,0.074h0.988h0.015h0.015h0.015c0.339,0,0.644-0.09,0.913-0.27
		C186.905,98.381,187.105,98.141,187.225,97.842z"/>
	<path d="M191.385,104.547c-0.23-0.159-0.434-0.347-0.614-0.562c-0.18-0.214-0.324-0.451-0.434-0.711
		c-0.149-0.359-0.225-0.733-0.225-1.122v-5.193c0-0.29,0.042-0.571,0.127-0.846c0.084-0.274,0.207-0.526,0.367-0.756
		c0.319-0.489,0.743-0.839,1.272-1.048c0.359-0.149,0.733-0.225,1.123-0.225c0.599,0,1.138,0.164,1.617,0.494
		c0.479,0.319,0.823,0.738,1.033,1.257c0.159,0.379,0.239,0.754,0.239,1.123v5.193c0,0.578-0.165,1.117-0.494,1.616
		c-0.16,0.229-0.347,0.434-0.562,0.613c-0.215,0.18-0.452,0.324-0.711,0.435c-0.359,0.149-0.733,0.225-1.123,0.225
		C192.423,105.041,191.884,104.876,191.385,104.547z M191.595,102.153c0,0.299,0.08,0.563,0.239,0.793
		c0.15,0.229,0.354,0.399,0.614,0.509c0.169,0.07,0.354,0.104,0.554,0.104c0.299,0,0.563-0.079,0.793-0.239
		c0.229-0.149,0.399-0.354,0.509-0.613c0.07-0.17,0.105-0.354,0.105-0.554V96.96c0-0.3-0.08-0.56-0.24-0.778
		c-0.149-0.229-0.354-0.399-0.614-0.51c-0.189-0.079-0.374-0.119-0.554-0.119c-0.27,0-0.534,0.08-0.793,0.239
		c-0.23,0.149-0.399,0.359-0.509,0.629c-0.04,0.08-0.067,0.167-0.082,0.262c-0.015,0.095-0.022,0.188-0.022,0.277L191.595,102.153
		L191.595,102.153z"/>
	<path d="M198.105,94.1c0.199,0,0.372,0.072,0.516,0.217c0.145,0.146,0.217,0.317,0.217,0.517v8.486c0,0.07,0.025,0.13,0.075,0.18
		c0.05,0.05,0.115,0.075,0.195,0.075h1.856c0.199,0,0.371,0.072,0.517,0.217c0.145,0.145,0.217,0.316,0.217,0.517
		c0,0.209-0.072,0.387-0.217,0.531c-0.146,0.144-0.316,0.217-0.517,0.217h-2.859c-0.2,0-0.374-0.072-0.524-0.217
		c-0.149-0.145-0.225-0.322-0.225-0.531v-9.475c0-0.199,0.075-0.371,0.225-0.517C197.731,94.172,197.906,94.1,198.105,94.1z"/>
	<path d="M203.18,94.1c0.199,0,0.371,0.072,0.516,0.217c0.146,0.146,0.218,0.317,0.218,0.517v8.486c0,0.07,0.024,0.13,0.075,0.18
		c0.05,0.05,0.113,0.075,0.193,0.075h1.856c0.198,0,0.372,0.072,0.517,0.217c0.146,0.145,0.217,0.316,0.217,0.517
		c0,0.209-0.071,0.387-0.217,0.531c-0.145,0.144-0.316,0.217-0.517,0.217h-2.858c-0.199,0-0.375-0.072-0.523-0.217
		c-0.149-0.145-0.225-0.322-0.225-0.531v-9.475c0-0.199,0.074-0.371,0.225-0.517C202.805,94.172,202.979,94.1,203.18,94.1z"/>
	<path d="M209.54,95.777c-0.188,0.13-0.329,0.299-0.419,0.509c-0.061,0.14-0.09,0.289-0.09,0.449c0,0.18,0.035,0.344,0.104,0.493
		c0.06,0.17,0.164,0.354,0.314,0.554c0.118,0.17,0.278,0.353,0.479,0.547c0.198,0.194,0.448,0.422,0.747,0.681
		c0.13,0.11,0.271,0.232,0.427,0.367c0.154,0.135,0.308,0.282,0.457,0.441c0.159,0.159,0.297,0.312,0.412,0.456
		c0.113,0.146,0.221,0.287,0.321,0.427c0.158,0.239,0.272,0.464,0.345,0.674c0.139,0.359,0.209,0.708,0.209,1.048
		c0,0.528-0.154,1.018-0.465,1.467c-0.289,0.419-0.673,0.738-1.152,0.957c-0.338,0.141-0.679,0.21-1.018,0.21
		c-0.539,0-1.031-0.154-1.48-0.464c-0.431-0.289-0.748-0.674-0.959-1.152c-0.129-0.319-0.193-0.659-0.193-1.018
		c0-0.21,0.072-0.387,0.217-0.531s0.316-0.218,0.516-0.218c0.201,0,0.373,0.073,0.518,0.218s0.218,0.321,0.218,0.531
		c0,0.219,0.063,0.434,0.193,0.644c0.141,0.189,0.311,0.329,0.51,0.419c0.149,0.06,0.306,0.09,0.464,0.09
		c0.239,0,0.454-0.065,0.645-0.195c0.188-0.14,0.328-0.309,0.418-0.509c0.061-0.149,0.091-0.304,0.091-0.464
		c0-0.18-0.035-0.344-0.104-0.494c-0.061-0.169-0.16-0.349-0.3-0.538c-0.13-0.17-0.292-0.354-0.485-0.554
		c-0.194-0.2-0.446-0.43-0.756-0.688c-0.189-0.17-0.383-0.342-0.576-0.517c-0.194-0.175-0.377-0.361-0.547-0.562
		c-0.39-0.419-0.668-0.843-0.838-1.272c-0.141-0.358-0.21-0.708-0.21-1.047c0-0.27,0.04-0.529,0.12-0.778
		c0.079-0.25,0.189-0.484,0.328-0.704c0.32-0.438,0.709-0.753,1.168-0.942c0.309-0.14,0.648-0.21,1.018-0.21
		c0.549,0,1.043,0.149,1.482,0.449c0.418,0.289,0.738,0.674,0.957,1.152c0.13,0.319,0.195,0.664,0.195,1.033
		c0,0.199-0.072,0.371-0.217,0.516c-0.146,0.146-0.317,0.218-0.519,0.218c-0.199,0-0.371-0.072-0.517-0.218
		c-0.145-0.145-0.217-0.316-0.217-0.516c0-0.229-0.064-0.449-0.194-0.659c-0.14-0.189-0.314-0.329-0.523-0.419
		c-0.14-0.06-0.289-0.09-0.448-0.09C209.954,95.567,209.74,95.637,209.54,95.777z"/>
</g>
<g enable-background="new    ">
	<path d="M180.477,113.251c-0.048,0.076-0.102,0.149-0.161,0.218c-0.059,0.069-0.119,0.132-0.181,0.187
		c-0.035,0.035-0.056,0.076-0.062,0.124c-0.007,0.049,0.003,0.09,0.031,0.125c0.193,0.256,0.311,0.535,0.353,0.839
		c0.021,0.125,0.043,0.271,0.067,0.44c0.024,0.17,0.048,0.346,0.072,0.528c0.024,0.184,0.048,0.359,0.073,0.528
		c0.024,0.17,0.046,0.31,0.067,0.42l0.031,0.238c0.021,0.139-0.012,0.265-0.098,0.378c-0.086,0.114-0.199,0.182-0.337,0.202
		c-0.014,0.008-0.038,0.011-0.072,0.011c-0.125,0-0.235-0.041-0.332-0.124c-0.097-0.083-0.155-0.19-0.176-0.321
		c0-0.007-0.012-0.095-0.037-0.265c-0.024-0.169-0.052-0.369-0.083-0.601c-0.031-0.231-0.064-0.467-0.099-0.705
		c-0.035-0.238-0.062-0.434-0.083-0.585c-0.035-0.2-0.124-0.363-0.269-0.487c-0.152-0.131-0.325-0.196-0.518-0.196h-0.684
		c-0.055,0-0.1,0.017-0.135,0.052c-0.035,0.034-0.052,0.079-0.052,0.134v2.58c0,0.146-0.05,0.269-0.15,0.368
		c-0.1,0.101-0.219,0.15-0.357,0.15c-0.145,0-0.268-0.05-0.368-0.15s-0.15-0.223-0.15-0.368v-6.559c0-0.138,0.052-0.259,0.155-0.362
		c0.097-0.097,0.218-0.146,0.363-0.146h1.409c0.442,0,0.843,0.121,1.202,0.363c0.359,0.241,0.622,0.556,0.788,0.942
		c0.055,0.139,0.097,0.276,0.124,0.415c0.028,0.138,0.042,0.279,0.042,0.425C180.85,112.498,180.725,112.9,180.477,113.251z
		 M179.741,112.496c0.055-0.152,0.083-0.301,0.083-0.445c0-0.222-0.062-0.432-0.187-0.633c-0.131-0.187-0.297-0.321-0.497-0.403
		c-0.145-0.062-0.294-0.094-0.446-0.094h-0.715c-0.055,0-0.1,0.018-0.135,0.052c-0.035,0.035-0.052,0.079-0.052,0.135v1.896
		c0,0.048,0.017,0.09,0.052,0.124c0.035,0.035,0.08,0.052,0.135,0.052h0.684h0.01h0.01h0.01c0.235,0,0.446-0.062,0.632-0.187
		C179.52,112.869,179.658,112.703,179.741,112.496z"/>
	<path d="M184.113,117.479c-0.138-0.021-0.245-0.093-0.321-0.217c-0.09-0.11-0.117-0.235-0.083-0.373
		c0.2-1.092,0.379-2.076,0.539-2.953c0.069-0.373,0.136-0.739,0.202-1.099c0.065-0.359,0.124-0.683,0.176-0.969
		c0.052-0.287,0.095-0.521,0.129-0.705c0.034-0.183,0.055-0.284,0.062-0.306c0.055-0.283,0.19-0.511,0.404-0.684
		c0.214-0.18,0.459-0.27,0.735-0.27c0.283,0,0.532,0.09,0.746,0.27c0.214,0.173,0.349,0.4,0.404,0.684
		c0,0.021,0.017,0.121,0.052,0.301c0.035,0.18,0.078,0.413,0.129,0.699c0.052,0.287,0.11,0.61,0.176,0.969
		c0.065,0.359,0.133,0.726,0.202,1.099c0.159,0.877,0.342,1.865,0.549,2.964c0.034,0.138,0.006,0.263-0.083,0.373
		c-0.076,0.124-0.183,0.196-0.321,0.217c-0.021,0.008-0.052,0.011-0.093,0.011c-0.125,0-0.233-0.04-0.326-0.119
		c-0.093-0.079-0.154-0.182-0.182-0.306l-0.321-1.73c-0.014-0.097-0.072-0.146-0.176-0.146h-1.502c-0.104,0-0.166,0.049-0.187,0.146
		l-0.311,1.73c-0.028,0.124-0.088,0.227-0.181,0.306c-0.093,0.079-0.202,0.119-0.327,0.119
		C184.165,117.49,184.134,117.487,184.113,117.479z M185.284,113.956c-0.007,0.048,0.007,0.097,0.042,0.145
		c0.027,0.042,0.073,0.062,0.135,0.062h0.995c0.062,0,0.11-0.021,0.145-0.062c0.035-0.048,0.048-0.097,0.042-0.145
		c-0.055-0.283-0.107-0.562-0.155-0.834c-0.048-0.273-0.095-0.528-0.14-0.767c-0.045-0.239-0.084-0.453-0.119-0.643
		s-0.062-0.344-0.083-0.461c-0.027-0.097-0.09-0.146-0.187-0.146s-0.155,0.049-0.176,0.146c-0.021,0.117-0.048,0.271-0.083,0.461
		c-0.035,0.189-0.074,0.404-0.119,0.643c-0.045,0.239-0.093,0.493-0.145,0.767C185.383,113.395,185.333,113.673,185.284,113.956z"/>
	<path d="M188.88,110.413c0-0.138,0.05-0.257,0.15-0.357c0.1-0.1,0.223-0.15,0.368-0.15c0.138,0,0.257,0.051,0.357,0.15
		c0.1,0.101,0.15,0.22,0.15,0.357l-0.01,2.031v3.223c0,0.165,0.048,0.317,0.145,0.455c0.09,0.132,0.208,0.229,0.353,0.291
		c0.09,0.041,0.193,0.062,0.311,0.062c0.152,0,0.301-0.045,0.446-0.135c0.145-0.097,0.242-0.218,0.29-0.362
		c0.042-0.09,0.062-0.193,0.062-0.311v-5.254c0-0.138,0.05-0.257,0.15-0.357s0.223-0.15,0.368-0.15c0.138,0,0.257,0.051,0.358,0.15
		c0.1,0.101,0.15,0.22,0.15,0.357v5.254c0,0.165,0.048,0.317,0.145,0.455c0.09,0.132,0.208,0.229,0.353,0.291
		c0.09,0.041,0.193,0.062,0.311,0.062c0.152,0,0.3-0.045,0.445-0.135c0.145-0.097,0.242-0.218,0.29-0.362
		c0.042-0.09,0.062-0.193,0.062-0.311v-5.254c0-0.138,0.05-0.257,0.15-0.357c0.1-0.1,0.223-0.15,0.368-0.15
		c0.138,0,0.257,0.051,0.357,0.15c0.1,0.101,0.15,0.22,0.15,0.357v5.254c0,0.387-0.104,0.729-0.311,1.025
		c-0.201,0.297-0.47,0.515-0.808,0.652c-0.111,0.056-0.225,0.094-0.342,0.114c-0.117,0.021-0.238,0.031-0.362,0.031
		c-0.373,0-0.715-0.104-1.026-0.311c-0.111-0.069-0.208-0.148-0.291-0.238c-0.166,0.173-0.369,0.307-0.611,0.403
		c-0.11,0.056-0.224,0.094-0.342,0.114s-0.238,0.031-0.363,0.031c-0.373,0-0.715-0.104-1.025-0.311
		c-0.297-0.2-0.515-0.467-0.653-0.798c-0.097-0.235-0.145-0.474-0.145-0.715v-3.22V110.413L188.88,110.413z"/>
	<path d="M197.542,111.066c-0.131,0.09-0.228,0.207-0.29,0.352c-0.042,0.097-0.062,0.201-0.062,0.312
		c0,0.124,0.024,0.238,0.072,0.342c0.042,0.117,0.114,0.245,0.218,0.383c0.083,0.118,0.193,0.244,0.332,0.379
		c0.139,0.135,0.311,0.292,0.518,0.471c0.09,0.076,0.188,0.161,0.295,0.254c0.107,0.094,0.212,0.195,0.316,0.306
		c0.11,0.111,0.206,0.217,0.285,0.316c0.08,0.101,0.154,0.198,0.223,0.295c0.11,0.166,0.19,0.321,0.238,0.467
		c0.097,0.248,0.145,0.49,0.145,0.726c0,0.366-0.107,0.704-0.321,1.015c-0.2,0.29-0.466,0.512-0.798,0.663
		c-0.235,0.098-0.47,0.146-0.705,0.146c-0.373,0-0.715-0.107-1.026-0.321c-0.297-0.2-0.518-0.466-0.663-0.798
		c-0.09-0.221-0.135-0.456-0.135-0.704c0-0.146,0.05-0.268,0.15-0.368c0.1-0.1,0.219-0.15,0.357-0.15c0.138,0,0.257,0.05,0.357,0.15
		c0.1,0.1,0.15,0.223,0.15,0.368c0,0.151,0.045,0.3,0.135,0.445c0.097,0.131,0.214,0.228,0.352,0.29
		c0.104,0.041,0.211,0.062,0.321,0.062c0.166,0,0.314-0.045,0.446-0.135c0.131-0.097,0.228-0.215,0.29-0.353
		c0.042-0.104,0.062-0.211,0.062-0.321c0-0.124-0.024-0.238-0.073-0.342c-0.041-0.117-0.11-0.242-0.207-0.373
		c-0.09-0.117-0.202-0.245-0.337-0.384c-0.134-0.138-0.309-0.297-0.523-0.477c-0.131-0.117-0.264-0.236-0.399-0.357
		c-0.135-0.121-0.261-0.25-0.378-0.389c-0.27-0.29-0.463-0.583-0.58-0.881c-0.097-0.248-0.145-0.49-0.145-0.725
		c0-0.187,0.027-0.366,0.083-0.539c0.056-0.173,0.131-0.335,0.228-0.487c0.221-0.304,0.491-0.521,0.809-0.652
		c0.214-0.097,0.449-0.146,0.705-0.146c0.379,0,0.722,0.104,1.025,0.312c0.291,0.2,0.511,0.466,0.664,0.798
		c0.089,0.221,0.134,0.459,0.134,0.715c0,0.138-0.05,0.257-0.15,0.357c-0.101,0.1-0.22,0.15-0.357,0.15
		c-0.139,0-0.258-0.051-0.358-0.15c-0.1-0.101-0.15-0.22-0.15-0.357c0-0.159-0.045-0.312-0.135-0.456
		c-0.097-0.132-0.218-0.229-0.363-0.29c-0.097-0.042-0.2-0.062-0.311-0.062C197.829,110.92,197.68,110.969,197.542,111.066z"/>
	<path d="M201.252,109.905c0.139,0,0.257,0.051,0.357,0.15c0.1,0.101,0.149,0.22,0.149,0.357v5.077c0,0.188,0.056,0.37,0.165,0.55
		c0.104,0.158,0.249,0.276,0.436,0.352c0.057,0.028,0.115,0.047,0.182,0.058c0.066,0.01,0.13,0.016,0.191,0.016
		c0.207,0,0.391-0.056,0.55-0.166c0.159-0.104,0.276-0.245,0.353-0.425c0.055-0.132,0.083-0.259,0.083-0.384v-5.077
		c0-0.138,0.05-0.257,0.149-0.357c0.101-0.1,0.22-0.15,0.357-0.15c0.139,0,0.258,0.051,0.357,0.15c0.1,0.101,0.148,0.22,0.148,0.357
		v5.077c0,0.415-0.112,0.788-0.342,1.119c-0.221,0.325-0.514,0.566-0.881,0.726c-0.24,0.104-0.5,0.155-0.775,0.155
		c-0.395,0-0.765-0.114-1.108-0.342c-0.16-0.11-0.301-0.24-0.426-0.389c-0.124-0.148-0.226-0.312-0.3-0.492
		c-0.104-0.249-0.155-0.508-0.155-0.777v-5.077c0-0.138,0.05-0.257,0.149-0.357C200.994,109.956,201.113,109.905,201.252,109.905z"
		/>
	<path d="M212.027,116.982c0,0.139-0.051,0.258-0.15,0.357c-0.1,0.101-0.223,0.15-0.367,0.15c-0.139,0-0.258-0.05-0.357-0.15
		c-0.101-0.1-0.149-0.219-0.149-0.357l0.011-2.031v-3.222c0-0.166-0.049-0.318-0.146-0.456c-0.091-0.132-0.207-0.229-0.353-0.29
		c-0.098-0.042-0.201-0.062-0.312-0.062c-0.152,0-0.302,0.045-0.446,0.135c-0.145,0.097-0.24,0.218-0.289,0.362
		c-0.042,0.097-0.062,0.201-0.062,0.312v5.253c0,0.139-0.052,0.258-0.15,0.357c-0.1,0.101-0.223,0.15-0.368,0.15
		c-0.138,0-0.257-0.05-0.356-0.15c-0.101-0.1-0.149-0.219-0.149-0.357v-5.253c0-0.166-0.049-0.318-0.146-0.456
		c-0.09-0.132-0.207-0.229-0.353-0.29c-0.097-0.042-0.2-0.062-0.311-0.062c-0.152,0-0.302,0.045-0.445,0.135
		c-0.146,0.097-0.242,0.218-0.291,0.362c-0.041,0.097-0.062,0.201-0.062,0.312v5.253c0,0.139-0.049,0.258-0.149,0.357
		c-0.101,0.101-0.224,0.15-0.368,0.15c-0.139,0-0.258-0.05-0.357-0.15c-0.1-0.1-0.149-0.219-0.149-0.357v-5.253
		c0-0.38,0.104-0.722,0.312-1.026c0.201-0.297,0.471-0.515,0.809-0.652c0.111-0.056,0.225-0.094,0.342-0.114
		s0.238-0.031,0.363-0.031c0.373,0,0.715,0.104,1.025,0.312c0.109,0.068,0.207,0.148,0.289,0.238
		c0.166-0.173,0.371-0.308,0.612-0.404c0.108-0.056,0.224-0.094,0.343-0.114c0.116-0.021,0.237-0.031,0.361-0.031
		c0.372,0,0.715,0.104,1.025,0.312c0.297,0.2,0.515,0.466,0.652,0.798c0.096,0.234,0.146,0.473,0.146,0.715v3.222v2.026H212.027z"/>
</g>
</svg>
