<?xml version="1.0" encoding="utf-8"?>
<!-- Generator: Adobe Illustrator 16.0.0, SVG Export Plug-In . SVG Version: 6.00 Build 0)  -->
<!DOCTYPE svg PUBLIC "-//W3C//DTD SVG 1.1//EN" "http://www.w3.org/Graphics/SVG/1.1/DTD/svg11.dtd">
<svg version="1.1" id="Layer_1" xmlns="http://www.w3.org/2000/svg" xmlns:xlink="http://www.w3.org/1999/xlink" x="0px" y="0px"
	 width="400px" height="200px" viewBox="0 50 400 200" enable-background="new 0 50 400 200" xml:space="preserve">
<g>
	<path fill="#333333" d="M148.927,140.596c-29.033,0-52.57,23.537-52.57,52.57c0,29.035,23.537,52.57,52.57,52.57
		c29.033,0,52.57-23.535,52.57-52.57C201.497,164.133,177.96,140.596,148.927,140.596z M148.927,240.479
		c-26.088,0-47.313-21.226-47.313-47.312s21.226-47.314,47.313-47.314c26.087,0,47.313,21.227,47.313,47.314
		S175.015,240.479,148.927,240.479z"/>
	<circle fill="#333333" cx="120.013" cy="180.022" r="2.628"/>
	<path fill="#333333" d="M177.841,190.537c-1.452,0-2.629,1.177-2.629,2.629c0,14.493-11.791,26.285-26.285,26.285
		c-14.494,0-26.285-11.792-26.285-26.285c0-1.452-1.177-2.629-2.629-2.629c-1.451,0-2.628,1.177-2.628,2.629
		c0,17.395,14.148,31.542,31.542,31.542c17.392,0,31.542-14.147,31.542-31.542C180.469,191.714,179.292,190.537,177.841,190.537z"/>
	<path fill="#333333" d="M181.876,170.73c-1.027-1.028-2.69-1.026-3.717,0l-7.43,7.433c-0.479,0.476-0.774,1.133-0.774,1.86
		c0,1.451,1.177,2.627,2.628,2.627h10.515c1.452,0,2.629-1.176,2.629-2.627c0-1.452-1.177-2.629-2.629-2.629h-4.169l2.947-2.946
		C182.902,173.421,182.902,171.758,181.876,170.73z"/>
	<path fill="#333333" d="M115.978,174.448l2.947,2.946h-4.169c-1.452,0-2.629,1.176-2.629,2.629c0,1.451,1.177,2.627,2.629,2.627
		h10.515c1.451,0,2.628-1.176,2.628-2.627c0-0.729-0.296-1.385-0.774-1.86l-7.43-7.433c-1.026-1.026-2.689-1.028-3.717,0
		C114.952,171.758,114.952,173.421,115.978,174.448z"/>
</g>
<g>
	<path fill="#333333" d="M252.075,138.596c-29.033,0-52.57,23.537-52.57,52.57c0,29.035,23.537,52.57,52.57,52.57
		c29.032,0,52.569-23.535,52.569-52.57C304.646,162.133,281.107,138.596,252.075,138.596z M252.075,238.479
		c-26.089,0-47.313-21.226-47.313-47.312s21.227-47.314,47.313-47.314s47.313,21.227,47.313,47.314S278.163,238.479,252.075,238.479
		z"/>
	<circle fill="#333333" cx="223.161" cy="178.022" r="2.628"/>
	<path fill="#333333" d="M280.989,188.537c-1.452,0-2.63,1.177-2.63,2.629c0,14.493-11.791,26.285-26.284,26.285
		c-14.494,0-26.285-11.792-26.285-26.285c0-1.452-1.177-2.629-2.629-2.629c-1.451,0-2.628,1.177-2.628,2.629
		c0,17.395,14.148,31.542,31.542,31.542c17.392,0,31.542-14.147,31.542-31.542C283.617,189.714,282.439,188.537,280.989,188.537z"/>
	<path fill="#333333" d="M285.023,168.73c-1.026-1.028-2.689-1.026-3.717,0l-7.43,7.433c-0.479,0.476-0.773,1.133-0.773,1.86
		c0,1.451,1.176,2.627,2.627,2.627h10.516c1.452,0,2.629-1.176,2.629-2.627c0-1.453-1.177-2.629-2.629-2.629h-4.169l2.946-2.946
		C286.051,171.421,286.051,169.758,285.023,168.73z"/>
	<path fill="#333333" d="M219.127,172.448l2.947,2.946h-4.17c-1.451,0-2.629,1.176-2.629,2.629c0,1.451,1.178,2.627,2.629,2.627
		h10.516c1.451,0,2.627-1.176,2.627-2.627c0-0.729-0.295-1.385-0.773-1.86l-7.43-7.433c-1.027-1.026-2.688-1.028-3.717,0
		C218.1,169.758,218.1,171.421,219.127,172.448z"/>
</g>
<g id="Layer_1_1_">
	<g>
		<circle fill="#333333" cx="347.357" cy="190.658" r="52.641"/>
		<path fill="#F2ECEA" d="M347.357,238.033c-26.123,0-47.375-21.252-47.375-47.375s21.252-47.377,47.375-47.377
			s47.377,21.254,47.377,47.377S373.48,238.033,347.357,238.033z"/>
		<circle fill="#333333" cx="317.404" cy="177.497" r="2.632"/>
		<circle fill="#333333" cx="375.311" cy="177.497" r="2.632"/>
		<path fill="#333333" d="M375.311,188.025c-1.453,0-2.631,1.18-2.631,2.633c0,14.514-11.81,26.32-26.32,26.32
			c-14.514,0-26.319-11.811-26.319-26.32c0-1.454-1.179-2.633-2.631-2.633c-1.455,0-2.634,1.18-2.634,2.633
			c0,17.416,14.17,31.584,31.584,31.584c17.418,0,31.586-14.168,31.586-31.584C377.943,189.205,376.766,188.025,375.311,188.025z"/>
	</g>
</g>
<g id="Layer_1_2_">
	<g>
		<circle fill="#333333" cx="52.641" cy="190.658" r="52.641"/>
		<path fill="#F2ECEA" d="M52.641,238.033c-26.123,0-47.375-21.252-47.375-47.375s21.252-47.377,47.375-47.377
			s47.377,21.254,47.377,47.377S78.764,238.033,52.641,238.033z"/>
		<circle fill="#333333" cx="24.688" cy="177.497" r="2.632"/>
		<circle fill="#333333" cx="82.594" cy="177.497" r="2.632"/>
		<path fill="#333333" d="M82.594,188.025c-1.453,0-2.631,1.18-2.631,2.633c0,14.514-11.81,26.32-26.32,26.32
			c-14.514,0-26.32-11.811-26.32-26.32c0-1.454-1.178-2.633-2.631-2.633c-1.455,0-2.633,1.18-2.633,2.633
			c0,17.416,14.17,31.584,31.584,31.584c17.418,0,31.586-14.168,31.586-31.584C85.227,189.205,84.049,188.025,82.594,188.025z"/>
	</g>
</g>
<circle fill="#333333" cx="169.825" cy="79.011" r="2.601"/>
<circle fill="#333333" cx="227.042" cy="79.011" r="2.601"/>
<path fill="#333333" d="M250.449,102.017C250.449,73.288,227.16,50,198.434,50c-28.727,0-52.015,23.289-52.015,52.017
	c0,28.727,23.289,52.016,52.015,52.016C227.159,154.032,250.449,130.743,250.449,102.017z M198.434,148.831
	c-25.812,0-46.814-21.002-46.814-46.814s21.002-46.814,46.814-46.814s46.813,21.001,46.813,46.814
	C245.247,127.829,224.247,148.831,198.434,148.831z"/>
<path fill="#333333" d="M227.042,89.415h-57.217c-1.437,0-2.601,1.164-2.601,2.602c0,35.306,14,47.209,31.209,47.209
	c17.209,0,31.209-11.903,31.209-47.209C229.643,90.579,228.479,89.415,227.042,89.415z M198.434,134.024
	c-13.464,0-25.878-10.624-25.878-39.408h51.754C224.311,123.4,211.896,134.024,198.434,134.024z"/>
<path fill="#D0583A" d="M68.831,109.389c-4.674-4.593-6.703-9.617-6.703-14.117c0-7.677,5.117-12.794,12.879-12.794
	c7.232,0,9.707,3.355,13.939,8.208c4.233-4.853,6.704-8.208,13.938-8.208c7.766,0,12.883,5.117,12.883,12.794
	c0,4.5-2.029,9.524-6.704,14.117l-20.115,20.026L68.831,109.389z"/>
<path fill="#D0583A" d="M287.866,109.389c-4.673-4.593-6.702-9.617-6.702-14.117c0-7.677,5.117-12.794,12.878-12.794
	c7.231,0,9.707,3.355,13.938,8.208c4.234-4.853,6.705-8.208,13.938-8.208c7.767,0,12.883,5.117,12.883,12.794
	c0,4.5-2.028,9.524-6.702,14.117l-20.115,20.026L287.866,109.389z"/>
</svg>
