<?xml version="1.0" encoding="utf-8"?>
<!-- Generator: Adobe Illustrator 16.0.0, SVG Export Plug-In . SVG Version: 6.00 Build 0)  -->
<!DOCTYPE svg PUBLIC "-//W3C//DTD SVG 1.1//EN" "http://www.w3.org/Graphics/SVG/1.1/DTD/svg11.dtd">
<svg version="1.1" id="Layer_1" xmlns="http://www.w3.org/2000/svg" xmlns:xlink="http://www.w3.org/1999/xlink" x="0px" y="0px"
	 width="400px" height="200px" viewBox="0 50 400 200" enable-background="new 0 50 400 200" xml:space="preserve">
<path fill="#333333" d="M201,56c0-3.313-2.687-6-6-6H61.87c-3.313,0-6,2.687-6,6v74.633c0,3.312,2.687,6,6,6H195
	c3.313,0,6-2.688,6-6V56z"/>
<path fill="#B29E9A" d="M203.083,134.632c0,1.241-2.069,2.248-4.624,2.248H58.411c-2.554,0-4.624-1.007-4.624-2.248l0,0
	c0-1.241,2.07-2.247,4.624-2.247h140.048C201.014,132.385,203.083,133.391,203.083,134.632L203.083,134.632z"/>
<g id="Layer_1_1_">
	<g>
		<path fill="#333333" d="M280.857,108.359c-29.071,0-52.642,23.568-52.642,52.641s23.568,52.641,52.642,52.641
			c29.074,0,52.643-23.567,52.643-52.641S309.932,108.359,280.857,108.359z M280.857,208.375c-26.123,0-47.375-21.252-47.375-47.375
			s21.252-47.377,47.375-47.377s47.377,21.254,47.377,47.377S306.98,208.375,280.857,208.375z"/>
		<circle fill="#333333" cx="250.904" cy="147.839" r="2.632"/>
		<circle fill="#333333" cx="308.811" cy="147.839" r="2.632"/>
		<path fill="#333333" d="M308.811,158.367c-1.453,0-2.631,1.18-2.631,2.633c0,14.514-11.81,26.32-26.32,26.32
			c-14.514,0-26.319-11.811-26.319-26.32c0-1.454-1.179-2.633-2.631-2.633c-1.455,0-2.634,1.18-2.634,2.633
			c0,17.416,14.17,31.584,31.584,31.584c17.418,0,31.586-14.168,31.586-31.584C311.443,159.547,310.266,158.367,308.811,158.367z"/>
	</g>
</g>
<g>
	<circle fill="#333333" cx="52.57" cy="160.93" r="52.015"/>
	<path fill="#F2ECEA" d="M52.569,207.744c-25.812,0-46.815-21.002-46.815-46.814c0-25.812,21.003-46.813,46.815-46.813
		c25.811,0,46.812,21.001,46.812,46.813C99.382,186.742,78.382,207.744,52.569,207.744z"/>
	<circle fill="#333333" cx="23.96" cy="137.924" r="2.601"/>
	<circle fill="#333333" cx="81.177" cy="137.924" r="2.601"/>
	<path fill="#333333" d="M81.177,148.328H23.96c-1.438,0-2.601,1.164-2.601,2.602c0,35.307,14,47.209,31.209,47.209
		s31.209-11.902,31.209-47.209C83.778,149.492,82.614,148.328,81.177,148.328z M52.569,192.938
		c-13.464,0-25.878-10.623-25.878-39.407h51.755C78.446,182.312,66.032,192.938,52.569,192.938z"/>
</g>
<g id="Layer_1_2_">
	<g>
		<circle fill="#333333" cx="346.357" cy="161" r="52.641"/>
		<path fill="#F2ECEA" d="M346.357,208.375c-26.123,0-47.375-21.252-47.375-47.375s21.252-47.377,47.375-47.377
			s47.377,21.254,47.377,47.377S372.48,208.375,346.357,208.375z"/>
		<circle fill="#333333" cx="316.404" cy="147.839" r="2.632"/>
		<circle fill="#333333" cx="374.311" cy="147.839" r="2.632"/>
		<path fill="#333333" d="M374.311,158.367c-1.453,0-2.631,1.18-2.631,2.633c0,14.514-11.81,26.32-26.32,26.32
			c-14.514,0-26.319-11.811-26.319-26.32c0-1.454-1.179-2.633-2.631-2.633c-1.455,0-2.634,1.18-2.634,2.633
			c0,17.416,14.17,31.584,31.584,31.584c17.418,0,31.586-14.168,31.586-31.584C376.943,159.547,375.766,158.367,374.311,158.367z"/>
	</g>
</g>
<g>
	<rect x="120.619" y="81.853" fill="#69AEBD" width="11.565" height="3.393"/>
	<rect x="159.964" y="81.727" fill="#69AEBD" width="3.395" height="3.393"/>
	<rect x="120.493" y="90.399" fill="#69AEBD" width="32.807" height="3.393"/>
	<rect x="120.593" y="95.84" fill="#69AEBD" width="32.809" height="3.393"/>
	<rect x="120.619" y="100.959" fill="#69AEBD" width="9.553" height="3.393"/>
	<path fill="#F2ECEA" d="M176.479,90.362h-7.088V77.955c0-0.899-0.734-1.634-1.634-1.634h-51.285c-0.901,0-1.636,0.734-1.636,1.634
		v34.191c0,0.899,0.735,1.635,1.636,1.635h19.48l-0.751,4.845l-2.261,0.719v0.72h18.477v-0.72l-2.515-0.575l-0.578-4.989h6.534v4.99
		c0,0.625,0.506,1.13,1.131,1.13h20.491c0.623,0,1.13-0.506,1.13-1.13V91.493C177.609,90.869,177.103,90.362,176.479,90.362z
		 M142.763,109.022c0.032,0.011,0.069,0.019,0.101,0.031c0.106,0.045,0.203,0.105,0.295,0.173c0.355,0.264,0.588,0.684,0.588,1.16
		c0,0.796-0.646,1.445-1.443,1.445c-0.799,0-1.446-0.648-1.446-1.445c0-0.477,0.234-0.896,0.589-1.16
		c0.092-0.068,0.188-0.128,0.295-0.173c0.008-0.003,0.018-0.004,0.026-0.007c0.167-0.067,0.347-0.105,0.536-0.105
		C142.464,108.94,142.618,108.973,142.763,109.022z M117.728,106.865V79.086h48.646v11.276h-10.385c-0.624,0-1.13,0.506-1.13,1.131
		v15.372H117.728z M166.172,119.103c-0.462,0-0.836-0.374-0.836-0.834s0.374-0.834,0.836-0.834c0.459,0,0.833,0.372,0.833,0.834
		C167.005,118.729,166.631,119.103,166.172,119.103z M175.598,116.634h-18.352v-9.769V92.75h9.127h9.224L175.598,116.634
		L175.598,116.634z"/>
	<rect x="132.22" y="101.056" fill="#69AEBD" width="9.553" height="3.395"/>
	<rect x="143.822" y="101.155" fill="#69AEBD" width="9.553" height="3.395"/>
	<path fill="#F2ECEA" d="M185.248,106.149h-5.178c-0.547,0-0.994,0.448-0.994,0.995v11.838c0,0.547,0.447,0.994,0.994,0.994h5.178
		c0.547,0,0.993-0.447,0.993-0.994v-11.84C186.241,106.598,185.795,106.149,185.248,106.149z M182.721,119.41L182.721,119.41
		c-0.312,0-0.566-0.252-0.566-0.565c0-0.312,0.254-0.564,0.566-0.564l0,0c0.313,0,0.567,0.254,0.567,0.564
		C183.288,119.158,183.034,119.41,182.721,119.41z M185.487,117.841h-5.53v-9.807h5.53V117.841z"/>
	<rect x="159.005" y="94.762" fill="#69AEBD" width="6.661" height="1.8"/>
	<rect x="169.816" y="94.762" fill="#69AEBD" width="3.52" height="1.76"/>
	<polygon fill="#69AEBD" points="158.88,98.911 158.88,100.921 166.374,100.921 173.461,100.921 173.461,98.911 166.374,98.911 	"/>
	<polygon fill="#69AEBD" points="158.88,101.927 158.88,103.812 166.374,103.812 173.336,103.812 173.336,101.927 166.374,101.927 	
		"/>
	<polygon fill="#69AEBD" points="163.028,106.865 163.028,104.818 158.88,104.818 158.88,106.865 158.88,108.462 163.028,108.462 	
		"/>
	<polygon fill="#69AEBD" points="166.374,104.818 164.284,104.818 164.284,106.865 164.284,108.462 168.182,108.462 
		168.182,104.818 	"/>
	<rect x="169.187" y="104.818" fill="#69AEBD" width="4.149" height="3.644"/>
	<rect x="159.005" y="109.594" fill="#69AEBD" width="14.331" height="1.886"/>
	<rect x="159.005" y="112.612" fill="#69AEBD" width="14.331" height="1.885"/>
	<rect x="180.459" y="109.041" fill="#69AEBD" width="4.46" height="0.754"/>
	<rect x="180.459" y="111.151" fill="#69AEBD" width="4.008" height="1.119"/>
	<rect x="180.459" y="113.189" fill="#69AEBD" width="2.01" height="1.643"/>
	<rect x="180.584" y="115.954" fill="#69AEBD" width="4.527" height="0.881"/>
</g>
<g>
	<path fill="#69AEBD" stroke="#000000" stroke-width="2.4236" stroke-miterlimit="10" d="M95.465,88.116"/>
	<path fill="none" d="M87.615,68.536v0.722H84.93v-1.099h-7.926v1.099h-1.098v8.121h1.098v1.13h7.925v-1.13h2.685v0.745
		c0.604-0.203,1.117-0.482,1.527-0.847c0.784-0.697,1.233-1.8,1.345-3.275h-1.041v-2.684h0.838c-0.222-0.825-0.6-1.48-1.14-1.952
		C88.733,69.009,88.219,68.736,87.615,68.536z"/>
	<path fill="#69AEBD" d="M95.562,83.224c0.657,0.572,1.201,1.256,1.615,2.033c0.418,0.782,0.727,1.659,0.92,2.604
		c0.193,0.952,0.328,1.921,0.399,2.876c0.036,0.611,0.071,1.328,0.107,2.153c0.035,0.828,0.099,1.687,0.189,2.55
		c0.091,0.87,0.238,1.707,0.438,2.488c0.05,0.195,0.109,0.382,0.171,0.564h0.521c-0.082-0.219-0.158-0.445-0.219-0.687
		c-0.195-0.758-0.339-1.57-0.426-2.418c-0.091-0.854-0.153-1.7-0.188-2.52c-0.036-0.828-0.072-1.547-0.108-2.164
		c-0.072-0.979-0.21-1.97-0.408-2.941c-0.202-0.99-0.527-1.91-0.967-2.735c-0.443-0.83-1.023-1.561-1.727-2.172
		c-0.404-0.352-0.878-0.648-1.406-0.898v0.539C94.879,82.707,95.243,82.948,95.562,83.224z"/>
	<path fill="#69AEBD" d="M92.528,62.4c1.001,0.403,1.901,0.923,2.692,1.549v-0.236h0.476c-0.869-0.719-1.866-1.314-2.985-1.766
		c-0.68-0.273-1.403-0.479-2.168-0.622v0.498C91.241,61.958,91.906,62.15,92.528,62.4z"/>
	<path fill="#69AEBD" d="M97.585,77.714c-0.695,1.208-1.739,2.207-3.11,2.984v0.556c1.566-0.838,2.753-1.941,3.533-3.296
		c0.671-1.163,1.106-2.491,1.315-3.957H98.83C98.626,75.378,98.214,76.624,97.585,77.714z"/>
	<rect x="68.541" y="61.094" fill="#69AEBD" width="19.317" height="0.487"/>
	<rect x="66.954" y="62.68" fill="#69AEBD" width="0.488" height="35.812"/>
	<path fill="#69AEBD" d="M91.273,95.452c-0.106-1.681-0.271-3.318-0.485-4.872c-0.122-0.84-0.304-1.588-0.538-2.25h-0.52
		c0.253,0.668,0.446,1.439,0.573,2.318c0.214,1.54,0.376,3.167,0.482,4.835c0.07,1.095,0.217,2.101,0.439,3.009h0.508
		C91.502,97.581,91.345,96.568,91.273,95.452z"/>
	<rect x="75.419" y="86.133" fill="#69AEBD" width="0.488" height="12.358"/>
	<path fill="#69AEBD" d="M88.438,85.645c-0.99-0.728-2.435-1.098-4.311-1.098h-7.123v0.488h7.123c1.591,0,2.838,0.274,3.73,0.812
		v-0.202H88.438z"/>
	<rect x="68.541" y="99.591" fill="#69AEBD" width="5.78" height="0.487"/>
	<rect x="93.228" y="99.591" fill="#69AEBD" width="5.787" height="0.487"/>
	<path fill="#69AEBD" d="M89.145,69.366c0.54,0.471,0.917,1.127,1.139,1.952h0.509c-0.24-0.981-0.684-1.759-1.326-2.319
		c-0.496-0.431-1.116-0.756-1.851-0.978v0.516C88.219,68.736,88.733,69.009,89.145,69.366z"/>
	<rect x="77.005" y="78.508" fill="#69AEBD" width="7.925" height="0.487"/>
	<rect x="77.005" y="67.67" fill="#69AEBD" width="7.925" height="0.488"/>
	<rect x="75.419" y="69.257" fill="#69AEBD" width="0.488" height="8.121"/>
	<path fill="#69AEBD" d="M89.142,77.277c-0.41,0.364-0.924,0.644-1.526,0.847v0.517c0.736-0.227,1.356-0.559,1.852-0.999
		c0.889-0.79,1.396-2.014,1.512-3.64h-0.492C90.375,75.477,89.926,76.58,89.142,77.277z"/>
	<rect x="66.345" y="60.484" fill="#69AEBD" width="1.708" height="1.709"/>
	<rect x="88.347" y="60.484" fill="#69AEBD" width="1.708" height="1.709"/>
	<rect x="74.809" y="67.062" fill="#69AEBD" width="1.709" height="1.708"/>
	<rect x="74.809" y="77.866" fill="#69AEBD" width="1.709" height="1.709"/>
	<rect x="74.809" y="83.938" fill="#69AEBD" width="1.709" height="1.707"/>
	<rect x="88.347" y="86.133" fill="#69AEBD" width="1.708" height="1.708"/>
	<rect x="74.809" y="98.98" fill="#69AEBD" width="1.709" height="1.709"/>
	<rect x="66.345" y="98.98" fill="#69AEBD" width="1.708" height="1.709"/>
	<rect x="91.031" y="98.98" fill="#69AEBD" width="1.707" height="1.709"/>
	<rect x="99.503" y="98.98" fill="#69AEBD" width="1.708" height="1.709"/>
	<rect x="92.278" y="80.865" fill="#69AEBD" width="1.707" height="1.707"/>
	<rect x="89.935" y="71.806" fill="#69AEBD" width="1.707" height="1.708"/>
	<rect x="85.419" y="67.062" fill="#69AEBD" width="1.707" height="1.708"/>
	<rect x="85.419" y="77.866" fill="#69AEBD" width="1.707" height="1.709"/>
	<rect x="95.708" y="64.201" fill="#69AEBD" width="1.709" height="1.707"/>
	<path fill="#69AEBD" d="M100.113,73.514v-1.708H99.46v-9.79c0.354-0.106,0.615-0.431,0.615-0.82c0-0.475-0.386-0.858-0.86-0.858
		c-0.476,0-0.859,0.384-0.859,0.858c0,0.39,0.261,0.714,0.615,0.82v6.572c-0.089-0.287-0.189-0.569-0.302-0.846
		c-0.213-0.519-0.475-1.008-0.765-1.479v0.134h-0.487c0.308,0.485,0.58,0.992,0.8,1.53c0.431,1.057,0.679,2.194,0.745,3.391h0.009
		v0.488h-0.565v1.708h0.565v9.735c-0.354,0.104-0.615,0.43-0.615,0.819c0,0.475,0.386,0.859,0.859,0.859
		c0.476,0,0.86-0.385,0.86-0.859c0-0.39-0.261-0.715-0.615-0.819v-9.735H100.113z"/>
</g>
</svg>
