<?xml version="1.0" encoding="utf-8"?>
<!-- Generator: Adobe Illustrator 16.0.0, SVG Export Plug-In . SVG Version: 6.00 Build 0)  -->
<!DOCTYPE svg PUBLIC "-//W3C//DTD SVG 1.1//EN" "http://www.w3.org/Graphics/SVG/1.1/DTD/svg11.dtd">
<svg version="1.1" id="Layer_1" xmlns="http://www.w3.org/2000/svg" xmlns:xlink="http://www.w3.org/1999/xlink" x="0px" y="0px"
	 width="150px" height="150px" viewBox="0 0 150 150" enable-background="new 0 0 150 150" xml:space="preserve">
<g>
	<circle fill="#333333" cx="45.799" cy="73.979" r="2.601"/>
	<circle fill="#333333" cx="103.016" cy="73.979" r="2.601"/>
	<path fill="#333333" d="M126.423,96.984c0-28.729-23.289-52.017-52.016-52.017c-28.727,0-52.015,23.289-52.015,52.017
		c0,28.727,23.289,52.016,52.015,52.016C103.133,149,126.423,125.711,126.423,96.984z M74.407,143.799
		c-25.812,0-46.814-21.002-46.814-46.814c0-25.812,21.002-46.814,46.814-46.814c25.812,0,46.813,21.001,46.813,46.814
		C121.221,122.797,100.221,143.799,74.407,143.799z"/>
	<path fill="#333333" d="M103.016,84.383H45.799c-1.437,0-2.601,1.164-2.601,2.602c0,35.306,14,47.209,31.209,47.209
		s31.209-11.903,31.209-47.209C105.616,85.547,104.452,84.383,103.016,84.383z M74.407,128.992
		c-13.463,0-25.878-10.624-25.878-39.408h51.755C100.284,118.368,87.87,128.992,74.407,128.992z"/>
	<g>
		<path fill="#B29E9A" d="M117.41,114.596h12.438l1.137-1.623c0.929-1.398,1.951-2.74,2.838-4.168
			c0.419-0.68,1.207-1.789,0.896-2.647c-0.222-0.613-0.787-0.823-1.396-0.931c-0.44-0.076-2.685-0.645-3.591-0.459
			c-0.803,0.164-1.545,0.547-2.316,0.814c-1.086,0.378-2.288,0.693-3.48,0.629c-1.028-0.057-2.199-0.188-3.17-0.538
			c-0.805-0.292-1.582-0.72-2.434-0.866c-0.734-0.125-3.412,0.246-3.95,0.338c-3.792,0.652-1.034,3.537,1.892,7.828L117.41,114.596z
			"/>
		<path fill="#B29E9A" d="M144.863,133.611c-3.188-7.348-8.961-15.359-15.01-19.226h-12.547
			c-6.048,3.867-11.818,11.88-15.008,19.226c-3.195,7.363,0.639,14.6,7.943,14.6h26.678
			C144.227,148.211,148.061,140.975,144.863,133.611z"/>
		<path fill="#F2ECEA" d="M124.748,140.281v2.982h-2.375v-2.811c-1.823-0.059-3.646-0.578-4.689-1.271l0.781-2.724
			c1.129,0.666,2.75,1.274,4.518,1.274c1.824,0,3.068-0.897,3.068-2.287c0-1.305-1.013-2.145-3.156-2.926
			c-3.041-1.1-5.009-2.488-5.009-5.182c0-2.49,1.736-4.4,4.661-4.922v-2.836h2.375v2.691c1.822,0.059,3.066,0.492,3.994,0.957
			l-0.782,2.662c-0.694-0.318-1.967-0.983-3.937-0.983c-2.026,0-2.752,1.042-2.752,2.026c0,1.188,1.044,1.853,3.505,2.838
			c3.241,1.215,4.688,2.778,4.688,5.354C129.641,137.589,127.934,139.76,124.748,140.281z"/>
	</g>
	<g>
		<path fill="#B29E9A" d="M20.151,114.596h12.436l1.138-1.623c0.928-1.398,1.951-2.74,2.837-4.168
			c0.419-0.68,1.207-1.789,0.897-2.647c-0.222-0.613-0.788-0.823-1.396-0.931c-0.44-0.076-2.685-0.645-3.59-0.459
			c-0.804,0.164-1.546,0.547-2.317,0.814c-1.086,0.378-2.288,0.693-3.48,0.629c-1.029-0.057-2.2-0.188-3.17-0.538
			c-0.805-0.292-1.582-0.72-2.434-0.866c-0.734-0.125-3.412,0.246-3.95,0.338c-3.792,0.652-1.035,3.537,1.891,7.828L20.151,114.596z
			"/>
		<path fill="#B29E9A" d="M47.605,133.611c-3.188-7.348-8.962-15.359-15.011-19.226H20.046C14,118.254,8.228,126.266,5.04,133.611
			c-3.196,7.363,0.638,14.6,7.943,14.6h26.678C46.967,148.211,50.801,140.975,47.605,133.611z"/>
		<path fill="#F2ECEA" d="M27.489,140.281v2.982h-2.375v-2.811c-1.823-0.059-3.647-0.578-4.69-1.271l0.782-2.724
			c1.129,0.666,2.75,1.274,4.517,1.274c1.825,0,3.069-0.897,3.069-2.287c0-1.305-1.013-2.145-3.156-2.926
			c-3.041-1.1-5.009-2.488-5.009-5.182c0-2.49,1.736-4.4,4.661-4.922v-2.836h2.375v2.691c1.822,0.059,3.067,0.492,3.994,0.957
			l-0.782,2.662c-0.694-0.318-1.967-0.983-3.937-0.983c-2.026,0-2.751,1.042-2.751,2.026c0,1.188,1.043,1.853,3.504,2.838
			c3.242,1.215,4.689,2.778,4.689,5.354C32.38,137.589,30.673,139.76,27.489,140.281z"/>
	</g>
</g>
</svg>
