<?xml version="1.0" encoding="utf-8"?>
<!-- Generator: Adobe Illustrator 16.0.0, SVG Export Plug-In . SVG Version: 6.00 Build 0)  -->
<!DOCTYPE svg PUBLIC "-//W3C//DTD SVG 1.1//EN" "http://www.w3.org/Graphics/SVG/1.1/DTD/svg11.dtd">
<svg version="1.1" id="Layer_1" xmlns="http://www.w3.org/2000/svg" xmlns:xlink="http://www.w3.org/1999/xlink" x="0px" y="0px"
	 width="100px" height="100px" viewBox="0 0 100 100" enable-background="new 0 0 100 100" xml:space="preserve">
<path fill="#333333" d="M49.999,92.61c23.535,0,42.61-19.076,42.61-42.608S73.534,7.391,49.999,7.391
	c-23.53,0-42.608,19.079-42.608,42.611S26.469,92.61,49.999,92.61z M49.999,11.652c21.148,0,38.351,17.203,38.351,38.35
	c0,21.144-17.202,38.348-38.351,38.348c-21.144,0-38.348-17.204-38.348-38.348C11.651,28.855,28.855,11.652,49.999,11.652z"/>
<circle fill="#333333" cx="26.564" cy="39.349" r="2.13"/>
<path fill="#333333" d="M26.564,52.134c1.176,0,2.131-0.954,2.131-2.132s-2.131-6.391-2.131-6.391s-2.131,5.213-2.131,6.391
	S25.387,52.134,26.564,52.134z"/>
<circle fill="#333333" cx="73.436" cy="39.349" r="2.13"/>
<path fill="#333333" d="M26.564,75.566c1.176,0,2.131-0.952,2.131-2.129c0-11.749,9.557-21.304,21.304-21.304
	c11.749,0,21.306,9.555,21.306,21.304c0,1.177,0.953,2.129,2.131,2.129c1.175,0,2.13-0.952,2.13-2.129
	c0-14.099-11.468-25.565-25.566-25.565c-14.095,0-25.565,11.467-25.565,25.565C24.434,74.614,25.387,75.566,26.564,75.566z"/>
</svg>
