<?xml version="1.0" encoding="utf-8"?>
<!-- Generator: Adobe Illustrator 16.0.0, SVG Export Plug-In . SVG Version: 6.00 Build 0)  -->
<!DOCTYPE svg PUBLIC "-//W3C//DTD SVG 1.1//EN" "http://www.w3.org/Graphics/SVG/1.1/DTD/svg11.dtd">
<svg version="1.1" id="Layer_1" xmlns="http://www.w3.org/2000/svg" xmlns:xlink="http://www.w3.org/1999/xlink" x="0px" y="0px"
	 width="150px" height="150px" viewBox="0 0 150 150" enable-background="new 0 0 150 150" xml:space="preserve">
<g id="Layer_2">
</g>
<g>
	<g id="Layer_1_1_">
		<g>
			<path fill="#333333" d="M57.391,43.719c-29.072,0-52.641,23.568-52.641,52.641S28.319,149,57.391,149
				c29.072,0,52.641-23.568,52.641-52.641C110.032,67.286,86.463,43.719,57.391,43.719z M57.391,143.734
				c-26.124,0-47.376-21.252-47.376-47.375c0-26.124,21.252-47.376,47.376-47.376c26.123,0,47.376,21.253,47.376,47.376
				C104.768,122.482,83.514,143.734,57.391,143.734z"/>
			<circle fill="#333333" cx="28.438" cy="83.199" r="2.632"/>
			<circle fill="#333333" cx="86.343" cy="83.199" r="2.632"/>
			<path fill="#333333" d="M86.343,93.727c-1.454,0-2.632,1.18-2.632,2.633c0,14.513-11.808,26.32-26.32,26.32
				c-14.513,0-26.32-11.809-26.32-26.32c0-1.454-1.178-2.633-2.632-2.633s-2.632,1.18-2.632,2.633
				c0,17.416,14.169,31.584,31.584,31.584c17.417,0,31.585-14.168,31.585-31.584C88.977,94.906,87.797,93.727,86.343,93.727z"/>
		</g>
	</g>
	<path fill="#D0583A" d="M97.814,35.911c-4.674-4.592-6.703-9.617-6.703-14.117C91.111,14.117,96.229,9,103.99,9
		c7.232,0,9.707,3.356,13.939,8.208C122.163,12.356,124.634,9,131.867,9c7.766,0,12.883,5.117,12.883,12.794
		c0,4.5-2.029,9.525-6.704,14.117l-20.114,20.027L97.814,35.911z"/>
</g>
</svg>
