<?xml version="1.0" encoding="utf-8"?>
<!-- Generator: Adobe Illustrator 16.0.0, SVG Export Plug-In . SVG Version: 6.00 Build 0)  -->
<!DOCTYPE svg PUBLIC "-//W3C//DTD SVG 1.1//EN" "http://www.w3.org/Graphics/SVG/1.1/DTD/svg11.dtd">
<svg version="1.1" id="Layer_1" xmlns="http://www.w3.org/2000/svg" xmlns:xlink="http://www.w3.org/1999/xlink" x="0px" y="0px"
	 width="150px" height="150px" viewBox="0 0 150 150" enable-background="new 0 0 150 150" xml:space="preserve">
<g>
	<circle fill="#333333" cx="45.799" cy="73.979" r="2.601"/>
	<circle fill="#333333" cx="103.016" cy="73.979" r="2.601"/>
	<path fill="#333333" d="M126.423,96.984c0-28.729-23.289-52.018-52.016-52.018c-28.727,0-52.015,23.289-52.015,52.018
		c0,28.727,23.289,52.016,52.015,52.016C103.133,149,126.423,125.711,126.423,96.984z M74.407,143.799
		c-25.812,0-46.814-21.002-46.814-46.814c0-25.812,21.002-46.813,46.814-46.813c25.812,0,46.813,21.001,46.813,46.813
		S100.221,143.799,74.407,143.799z"/>
	<path fill="#333333" d="M103.016,84.383H45.799c-1.437,0-2.601,1.164-2.601,2.602c0,35.307,14,47.209,31.209,47.209
		s31.209-11.902,31.209-47.209C105.616,85.547,104.452,84.383,103.016,84.383z M74.407,128.992
		c-13.463,0-25.878-10.624-25.878-39.408h51.755C100.284,118.368,87.87,128.992,74.407,128.992z"/>
</g>
</svg>
